<?xml version="1.0" encoding="UTF-8" standalone="no"?>
<!-- Created with Inkscape (http://www.inkscape.org/) -->

<svg
   xmlns:dc="http://purl.org/dc/elements/1.1/"
   xmlns:cc="http://creativecommons.org/ns#"
   xmlns:rdf="http://www.w3.org/1999/02/22-rdf-syntax-ns#"
   xmlns:svg="http://www.w3.org/2000/svg"
   xmlns="http://www.w3.org/2000/svg"
   xmlns:sodipodi="http://sodipodi.sourceforge.net/DTD/sodipodi-0.dtd"
   xmlns:inkscape="http://www.inkscape.org/namespaces/inkscape"
   width="467.29697"
   height="369.67172"
   viewBox="0 0 467.29697 369.67172"
   id="svg4718"
   version="1.1"
   inkscape:version="0.91 r13725"
   inkscape:export-filename="/home/krister/I200/joonised/objekt.png"
   inkscape:export-xdpi="40"
   inkscape:export-ydpi="40"
   sodipodi:docname="objekt.svg">
  <defs
     id="defs4720" />
  <sodipodi:namedview
     id="base"
     pagecolor="#ffffff"
     bordercolor="#666666"
     borderopacity="1.0"
     inkscape:pageopacity="0.0"
     inkscape:pageshadow="2"
     inkscape:zoom="1.4068079"
     inkscape:cx="202.75313"
     inkscape:cy="170.30023"
     inkscape:document-units="px"
     inkscape:current-layer="layer1"
     showgrid="false"
     units="px"
     fit-margin-top="0"
     fit-margin-left="0"
     fit-margin-right="0"
     fit-margin-bottom="0"
     inkscape:window-width="1280"
     inkscape:window-height="774"
     inkscape:window-x="0"
     inkscape:window-y="0"
     inkscape:window-maximized="1" />
  <metadata
     id="metadata4723">
    <rdf:RDF>
      <cc:Work
         rdf:about="">
        <dc:format>image/svg+xml</dc:format>
        <dc:type
           rdf:resource="http://purl.org/dc/dcmitype/StillImage" />
        <dc:title></dc:title>
      </cc:Work>
    </rdf:RDF>
  </metadata>
  <g
     inkscape:label="Layer 1"
     inkscape:groupmode="layer"
     id="layer1"
     transform="translate(-138.54897,-573.53833)">
    <path
       style="fill:#000080;fill-opacity:1;stroke:none;stroke-width:3;stroke-linecap:round;stroke-linejoin:round;stroke-miterlimit:4;stroke-dasharray:none;stroke-opacity:1"
       id="path5300"
       d="m 188.8609,647.05095 c 0.94144,1.93747 1.53318,4.04023 2.11324,6.11009 1.05335,3.40175 1.47064,6.9016 1.53222,10.44724 0.0713,2.24881 -0.22875,4.48401 -0.57252,6.70045 -0.0211,0.12918 -0.0422,0.25837 -0.0633,0.38755 0,0 -9.5068,4.57306 -9.5068,4.57306 l 0,0 c 0.0392,-0.12989 0.0785,-0.25979 0.11769,-0.38969 0.57849,-2.16864 0.9682,-4.40195 0.97508,-6.65137 0.007,-3.4546 -0.35878,-6.86368 -1.48512,-10.15373 -0.59884,-1.97516 -1.18654,-4.04096 -2.28268,-5.80109 0,0 9.17222,-5.22251 9.17222,-5.22251 z"
       inkscape:connector-curvature="0" />
    <path
       style="fill:#000080;fill-opacity:1;stroke:none;stroke-width:3;stroke-linecap:round;stroke-linejoin:round;stroke-miterlimit:4;stroke-dasharray:none;stroke-opacity:1"
       id="path5302"
       d="m 177.21508,641.87429 c -0.87984,-1.17601 -1.43899,-2.55156 -2.02296,-3.88948 -0.0602,-0.23337 -0.12042,-0.46675 -0.18064,-0.70012 0,0 9.24615,-4.94365 9.24615,-4.94365 l 0,0 c 0.0219,0.17693 0.0439,0.35386 0.0658,0.53079 0.47748,1.22446 0.99029,2.51275 1.89581,3.4847 0,0 -9.00417,5.51776 -9.00417,5.51776 z"
       inkscape:connector-curvature="0" />
    <path
       style="fill:#000080;fill-opacity:1;stroke:none;stroke-width:3;stroke-linecap:round;stroke-linejoin:round;stroke-miterlimit:4;stroke-dasharray:none;stroke-opacity:1"
       id="path5304"
       d="m 203.05369,642.99758 c 0.49544,2.29026 1.79336,4.314 2.89607,6.35311 1.45779,2.83036 2.66822,5.78786 3.42365,8.88218 0.28424,1.71869 0.80297,3.46575 0.62839,5.22227 -0.67391,3.4989 -5.53546,2.95912 -9.51841,4.49003 -0.20102,0.0773 0.15706,-0.40117 0.22775,-0.60459 0.0995,-0.28624 0.18841,-0.57604 0.28261,-0.86406 0.123,-0.34811 0.24599,-0.69621 0.36898,-1.04432 1.01404,-2.86937 2.65131,-5.44496 4.43608,-7.88778 1.86113,-2.43632 3.99098,-4.65344 6.36365,-6.59243 4.41469,-3.03701 8.87322,-6.49012 14.20539,-7.48236 1.93475,0.0473 2.8511,1.59172 3.63155,3.1499 1.11221,2.48751 1.78944,5.13384 2.25309,7.81027 0.37976,2.65028 0.46273,5.33161 0.54153,8.00441 0.0785,0.9599 0.0604,1.91019 -0.0293,2.86635 0,0 -9.79995,4.07339 -9.79995,4.07339 l 0,0 c 0.91015,0.19037 0.53451,-1.80621 0.61438,-2.22886 0.006,-2.63937 -0.0256,-5.28653 -0.38913,-7.9058 -0.41948,-2.57169 -1.05743,-5.11807 -2.19789,-7.47424 -0.66697,-1.23947 -1.39311,-2.34253 -2.9566,-1.96953 -0.61156,0.14919 -0.82199,0.18217 -1.43655,0.41659 -0.27689,0.10561 -1.07038,0.50466 -0.8164,0.35196 14.49883,-8.71736 9.05928,-5.3615 5.93997,-3.41688 -2.50829,1.74204 -4.62684,4.00272 -6.55409,6.35909 -1.78006,2.31466 -3.44545,4.75975 -4.42499,7.53358 -0.22528,0.66513 -0.40224,1.13577 -0.56861,1.80559 -0.0537,0.21623 0.062,0.54534 -0.13183,0.65527 -0.63829,0.36205 -11.56694,8.2481 -9.54593,4.51381 0.66978,-1.52201 -0.034,-3.34442 -0.15804,-4.91535 -0.66666,-3.02445 -1.76148,-5.93708 -3.25889,-8.65258 -1.18191,-2.1168 -2.51097,-4.18391 -3.32118,-6.47966 0,0 9.29469,-4.96936 9.29469,-4.96936 z"
       inkscape:connector-curvature="0" />
    <path
       style="fill:#000080;fill-opacity:1;stroke:none;stroke-width:3;stroke-linecap:round;stroke-linejoin:round;stroke-miterlimit:4;stroke-dasharray:none;stroke-opacity:1"
       id="path5306"
       d="m 247.80009,609.68028 c -0.28869,3.80311 -0.1253,7.61636 0.0868,11.4181 0.54519,6.91879 1.60349,13.78677 2.54592,20.66014 0.61436,4.56551 1.15398,9.14168 1.17264,13.75235 -0.0194,1.04429 -0.0115,0.58287 -0.0245,1.38427 0,0 -9.43354,4.64995 -9.43354,4.64995 l 0,0 c 0.20057,-0.79715 0.10345,-0.33418 0.25144,-1.3967 0.44338,-4.63822 0.0208,-9.2692 -0.5329,-13.88407 -0.85061,-6.88399 -1.95974,-13.73275 -2.73201,-20.62619 -0.33098,-3.71908 -0.58601,-7.44106 -0.72702,-11.17183 0,0 9.39309,-4.78602 9.39309,-4.78602 z"
       inkscape:connector-curvature="0" />
    <path
       style="fill:#000080;fill-opacity:1;stroke:none;stroke-width:3;stroke-linecap:round;stroke-linejoin:round;stroke-miterlimit:4;stroke-dasharray:none;stroke-opacity:1"
       id="path5308"
       d="m 233.68219,630.45532 c 3.94921,-0.11638 7.9092,0.15671 11.85084,0.4141 2.80346,0.13194 5.60355,0.49639 8.40112,0.14742 0,0 -8.37493,6.16618 -8.37493,6.16618 l 0,0 c -2.715,-0.005 -5.41037,-0.3449 -8.11795,-0.5114 -4.03849,-0.24105 -8.13956,-0.51493 -12.15915,0.0707 0,0 8.40007,-6.28702 8.40007,-6.28702 z"
       inkscape:connector-curvature="0" />
    <path
       style="fill:#000080;fill-opacity:1;stroke:none;stroke-width:3;stroke-linecap:round;stroke-linejoin:round;stroke-miterlimit:4;stroke-dasharray:none;stroke-opacity:1"
       id="path5310"
       d="m 224.84894,584.01027 c -1.94078,-0.39237 -3.92836,-0.52879 -5.90308,-0.43844 -3.72866,0.11193 -7.35585,1.08934 -10.94402,2.02811 -4.79377,1.03727 -9.46784,2.5333 -14.17971,3.88024 -5.63511,1.56816 -10.92591,4.03037 -16.04279,6.82231 -0.85028,0.49511 -3.4182,1.94986 -2.55083,1.48534 1.99872,-1.07043 3.90081,-2.32448 5.94583,-3.30355 0.85769,-0.41062 -1.58273,1.05455 -2.3681,1.59068 -2.31554,1.58071 -4.54472,3.24228 -6.75013,4.97206 -4.52572,3.68539 -8.27662,8.16859 -11.93368,12.6847 -3.60178,4.30347 -6.29024,9.22045 -8.69928,14.25886 -2.12311,4.63115 -3.17692,9.56261 -3.73837,14.59415 -0.57483,4.76029 0.0132,9.49636 1.17448,14.11585 1.48171,5.01198 3.96143,9.6573 6.66322,14.10533 2.79758,4.54947 6.22137,8.65935 9.92535,12.49052 3.39057,3.52654 7.29908,6.47096 11.25947,9.31627 4.42402,2.98087 9.17294,5.33487 14.13441,7.26204 5.21962,1.9263 10.60337,3.32585 16.05902,4.38578 4.9925,0.81248 10.06347,1.1547 15.11809,1.01169 4.22819,-0.20507 8.26512,-1.49099 12.26061,-2.78251 4.09304,-1.34751 8.16331,-2.7599 12.21692,-4.22105 4.05323,-1.32061 7.90227,-3.152 11.76004,-4.94447 0.6771,-0.33548 1.3591,-0.66125 2.03129,-1.00645 1.388,-0.71279 2.77331,-1.4312 4.1463,-2.1725 0.67927,-0.36675 2.68571,-1.52363 2.01713,-1.13773 -8.14704,4.70238 -8.43514,4.90292 -4.55037,2.53454 3.96828,-2.4137 7.723,-5.14846 11.31214,-8.09103 2.99785,-2.4035 5.09799,-5.48314 6.56692,-8.99329 1.348,-3.47622 2.16723,-7.1115 2.94312,-10.74739 0.83656,-3.84868 1.11173,-7.77674 1.27708,-11.70126 0.18255,-3.79616 0.11089,-7.58514 -0.27999,-11.36431 -0.4081,-3.88106 -1.05079,-7.73385 -2.00851,-11.51668 -1.03314,-3.72555 -2.31398,-7.38947 -3.86445,-10.93096 -1.5177,-3.46103 -3.39121,-6.72552 -5.41952,-9.90669 -1.83032,-2.8807 -3.77055,-5.68975 -5.63967,-8.54536 -1.7421,-2.3731 -3.71084,-4.57813 -5.78563,-6.66391 -2.17772,-1.99728 -4.60074,-3.69966 -7.09997,-5.26654 -2.71267,-1.79619 -5.79634,-2.8439 -8.79272,-4.05112 -2.90584,-1.25733 -5.91945,-2.24437 -8.98801,-3.01581 -3.80269,-0.70397 -7.6776,-1.00645 -11.5314,-1.30628 -4.44338,-0.11447 -8.88077,0.0506 -13.30422,0.46074 -2.15004,0.23865 -1.13416,0.11789 -3.04821,0.3574 0,0 8.26191,-6.13329 8.26191,-6.13329 l 0,0 c 1.81717,-0.14489 0.8481,-0.0686 2.90729,-0.22795 4.43765,-0.32621 8.89403,-0.45034 13.34213,-0.29065 3.93779,0.29226 7.91189,0.53354 11.78069,1.35184 3.08931,0.82835 6.12147,1.84019 9.05169,3.13102 3.0497,1.22662 6.16169,2.34835 8.90958,4.19458 2.55495,1.62354 5.06786,3.35178 7.26698,5.44335 2.0857,2.16443 4.10521,4.4139 5.85523,6.86124 1.84132,2.87656 3.74631,5.7112 5.57569,8.59466 2.03369,3.23583 3.93807,6.54415 5.47061,10.05282 1.58286,3.5889 2.87818,7.30439 3.94141,11.07998 0.9705,3.8253 1.65596,7.70961 2.08989,11.63326 0.43843,3.82227 0.5167,7.6574 0.3426,11.50125 -0.15024,3.97639 -0.4237,7.95418 -1.22238,11.86151 -0.75148,3.6725 -1.50099,7.34984 -2.80413,10.87706 -1.40341,3.67074 -3.42875,6.96111 -6.48566,9.50689 -3.57887,2.99406 -7.32717,5.77947 -11.29856,8.23619 -6.75166,4.19959 -13.66363,8.1654 -20.81979,11.63656 -3.87347,1.80329 -7.77107,3.55964 -11.83832,4.89017 -4.06319,1.45285 -8.14585,2.85105 -12.24558,4.19745 -4.03397,1.26894 -8.12428,2.44959 -12.39053,2.50954 -5.07396,-0.006 -10.15774,-0.33783 -15.15657,-1.24296 -5.47563,-1.13275 -10.87492,-2.60532 -16.12129,-4.55301 -5.02862,-1.98395 -9.86607,-4.37376 -14.34878,-7.4181 -4.0048,-2.88033 -7.95896,-5.86398 -11.33886,-9.48237 -3.71267,-3.91566 -7.14557,-8.10382 -9.98966,-12.70121 -2.76942,-4.52066 -5.30531,-9.23673 -6.88802,-14.31791 -1.22604,-4.71668 -1.88699,-9.55471 -1.34527,-14.43164 0.55525,-5.1424 1.57238,-10.18052 3.688,-14.9373 2.40504,-5.10484 5.02709,-10.13253 8.658,-14.49425 3.64799,-4.5429 7.34724,-9.09042 11.8118,-12.86988 6.99516,-5.62189 14.59746,-10.34178 22.5259,-14.56814 5.1906,-2.75163 10.5569,-5.14589 16.23774,-6.70948 4.74773,-1.38459 9.46931,-2.86945 14.30176,-3.93985 3.70462,-0.95378 7.44227,-1.91023 11.28977,-1.99941 2.0923,-0.0214 4.17794,0.13697 6.24341,0.48316 0,0 -8.64744,6.02559 -8.64744,6.02559 z"
       inkscape:connector-curvature="0" />
    <path
       style="fill:#800000;fill-opacity:1;stroke:none;stroke-width:3;stroke-linecap:round;stroke-linejoin:round;stroke-miterlimit:4;stroke-dasharray:none;stroke-opacity:1"
       id="path5340"
       d="m 315.96076,740.65211 c 1.38415,-1.35487 1.68661,-2.48549 1.09346,-4.32626 -1.59437,-3.22405 -4.8155,-4.82759 -8.00052,-6.11549 -5.44415,-1.8083 -11.10963,-1.17908 -16.60333,-0.005 -2.44807,0.73432 -3.38777,0.92431 -5.69893,1.97152 -0.8139,0.3688 -3.16141,1.66706 -2.37928,1.23494 11.48695,-6.34653 7.29863,-4.64055 5.16574,-2.21136 -0.37195,0.42361 -0.64544,0.92443 -0.96815,1.38664 -0.15548,0.45576 -0.39544,0.89098 -0.46645,1.36727 -0.48701,3.26678 3.1267,5.25886 5.42439,6.60506 5.14549,2.61177 10.64424,4.45283 16.02599,6.51658 4.22474,1.70722 8.50995,3.47222 12.13348,6.29822 0.6377,0.49734 1.22433,1.05691 1.83649,1.58536 3.23376,2.98318 5.33396,6.54084 6.71317,10.67782 0.75809,2.45233 1.30405,5.04196 1.2032,7.62611 -0.0614,1.57447 -0.25763,2.14923 -0.59227,3.66998 -0.987,3.16715 -2.96746,5.97868 -5.58451,8.02665 -0.61163,0.47864 -1.28123,0.87819 -1.92185,1.31728 -9.98017,6.12759 -13.73634,8.27098 -24.59347,8.5749 -8.17678,-0.0457 -16.15009,-1.96202 -23.95065,-4.24196 -7.01936,-2.22312 -13.85774,-5.14207 -20.01456,-9.22053 -0.9733,-0.64475 -1.88913,-1.37231 -2.8337,-2.05847 -2.23699,-1.94897 -5.3905,-4.20695 -5.58921,-7.51223 -0.10305,-1.71424 0.42212,-2.09258 1.26423,-3.52258 0.57672,-0.51996 1.15345,-1.03991 1.73017,-1.55987 0,0 9.30483,-3.74184 9.30483,-3.74184 l 0,0 c -0.58165,0.42043 -1.16331,0.84085 -1.74497,1.26128 -0.82045,0.97541 -1.48411,1.41875 -1.58191,2.75985 -0.22228,3.04786 2.90174,5.33061 4.80326,7.13432 0.89526,0.6856 1.75983,1.41324 2.68577,2.05681 5.98578,4.16039 12.76344,6.98819 19.70513,9.1101 7.85173,2.19344 15.88451,3.95973 24.08959,3.76581 3.93089,-0.23478 7.68169,-0.66231 11.40467,-2.02269 0.80006,-0.29234 3.05956,-1.46024 2.36569,-0.96618 -2.01771,1.43669 -4.24914,2.5467 -6.37371,3.82004 0.64336,-0.39406 1.31176,-0.74989 1.93008,-1.18218 2.60244,-1.81948 4.62804,-4.44622 5.75026,-7.40507 0.34618,-1.29954 0.6227,-2.09597 0.72362,-3.44877 0.18543,-2.48566 -0.32984,-5.00754 -1.02534,-7.37479 -1.26112,-3.91647 -3.30986,-7.43291 -6.34609,-10.26147 -1.56551,-1.34753 -1.97576,-1.79159 -3.73039,-2.92792 -3.0874,-1.99946 -6.5329,-3.36192 -9.91744,-4.75819 -5.44262,-2.10302 -11.00843,-3.95001 -16.22748,-6.57617 -2.78787,-1.63288 -6.49762,-3.85216 -6.29477,-7.64127 0.0304,-0.56877 0.26415,-1.10812 0.39622,-1.66218 0.31797,-0.53874 0.57502,-1.11844 0.95391,-1.61622 2.73718,-3.59622 9.43338,-6.41683 11.8907,-7.83547 2.50028,-1.44344 5.36457,-2.17526 8.12264,-2.91894 5.70657,-1.09399 11.55385,-1.62151 17.15386,0.33106 3.45502,1.45223 6.87488,3.23976 8.71292,6.67711 0.79369,2.04265 0.84448,3.42857 -0.38801,5.29681 0,0 -9.75648,4.04126 -9.75648,4.04126 z"
       inkscape:connector-curvature="0" />
    <path
       style="fill:#800000;fill-opacity:1;stroke:none;stroke-width:3;stroke-linecap:round;stroke-linejoin:round;stroke-miterlimit:4;stroke-dasharray:none;stroke-opacity:1"
       id="path5342"
       d="m 355.71605,720.17223 c -1.12706,5.54976 -0.45558,11.32652 -0.0117,16.91939 0.91002,8.73784 1.93198,17.46493 2.9616,26.18982 0.55821,4.09446 0.80847,8.22574 1.35015,12.32156 0.0265,0.13199 0.0529,0.26398 0.0794,0.39596 0,0 -9.36177,4.84499 -9.36177,4.84499 l 0,0 c 0.008,-0.15305 0.0168,-0.3061 0.0252,-0.45915 0.066,-4.22735 -0.27078,-8.44985 -0.59243,-12.6613 -0.78805,-8.76988 -1.70015,-17.52504 -2.85615,-26.25486 -0.61167,-5.57524 -1.32287,-11.17653 -1.06738,-16.79716 0,0 9.47307,-4.49925 9.47307,-4.49925 z"
       inkscape:connector-curvature="0" />
    <path
       style="fill:#800000;fill-opacity:1;stroke:none;stroke-width:3;stroke-linecap:round;stroke-linejoin:round;stroke-miterlimit:4;stroke-dasharray:none;stroke-opacity:1"
       id="path5344"
       d="m 330.05169,752.27971 c -0.55698,-0.39231 -1.44374,-0.39493 -1.9501,-0.86586 -2.66181,-2.47562 5.81794,-4.36884 8.86464,-6.35165 4.20167,0.16954 8.41336,0.15747 12.61895,0.19324 6.55645,0.10146 13.11514,-0.14933 19.58894,-1.21914 3.1159,-0.69782 1.62735,-0.30321 4.47178,-1.16046 0,0 -7.97983,6.13342 -7.97983,6.13342 l 0,0 c -2.80154,0.70457 -1.33633,0.37975 -4.40012,0.95403 -6.48352,0.86646 -13.02221,1.03002 -19.55867,1.01707 -2.93837,0.0306 -5.87729,0.0491 -8.81456,0.14288 -0.677,0.0216 -2.66533,0.0858 -3.46849,0.19435 -0.27976,0.0378 -0.54947,0.12985 -0.82421,0.19478 9.19619,-6.24458 5.47179,-7.00293 10.26907,-5.03419 0,0 -8.8174,5.80153 -8.8174,5.80153 z"
       inkscape:connector-curvature="0" />
    <path
       style="fill:#800000;fill-opacity:1;stroke:none;stroke-width:3;stroke-linecap:round;stroke-linejoin:round;stroke-miterlimit:4;stroke-dasharray:none;stroke-opacity:1"
       id="path5346"
       d="m 384.93171,752.68953 c -0.98946,2.4835 0.37956,5.26257 1.28661,7.57233 1.49266,3.02223 2.85318,6.10978 4.39796,9.10591 0.15053,0.27887 0.29909,0.5588 0.45158,0.8366 0.17945,0.32689 0.65376,1.33483 0.54028,0.97961 -1.41278,-4.42211 -7.97421,9.17319 -9.51338,4.12833 -0.97477,-3.34631 -1.60372,-6.75984 -2.0537,-10.21136 -0.1877,-3.08511 -0.32116,-6.29103 0.47657,-9.31458 0.47948,-1.81732 0.81244,-2.23572 1.66595,-3.86189 0.39841,-0.50337 0.74705,-1.0505 1.19522,-1.51012 0.43367,-0.44473 0.90173,-0.8707 1.43574,-1.18801 6.69605,-3.97869 9.06794,-6.62679 15.68802,-6.50923 2.13867,0.1132 3.92985,1.07902 5.6544,2.25547 0,0 -8.63431,5.53863 -8.63431,5.53863 l 0,0 c -1.62455,-1.01553 -3.28249,-1.79967 -5.24925,-1.79835 -1.47982,0.0689 -1.87857,0.007 -3.33342,0.40747 -0.57914,0.15951 -2.19436,0.94099 -1.69878,0.6015 2.24981,-1.54117 4.655,-2.84254 7.00069,-4.23343 0.5233,-0.3103 -1.06192,0.60565 -1.53261,0.99111 -0.48186,0.39462 -0.87168,0.88985 -1.30752,1.33478 -0.90792,1.46711 -1.30785,1.91754 -1.84462,3.59532 -0.92651,2.89599 -0.83603,6.02859 -0.63816,9.01812 0.4577,3.33727 1.10963,6.63117 2.318,9.78888 1.81821,3.82947 0.78272,1.09459 -8.53866,6.63974 -0.0866,0.0515 -0.9848,-2.32358 -1.05241,-2.40238 -1.37085,-3.10642 -2.72071,-6.22312 -4.27014,-9.24668 -1.09423,-2.59139 -2.33896,-5.28367 -2.06046,-8.16701 0,0 9.6164,-4.35076 9.6164,-4.35076 z"
       inkscape:connector-curvature="0" />
    <path
       style="fill:#800000;fill-opacity:1;stroke:none;stroke-width:3;stroke-linecap:round;stroke-linejoin:round;stroke-miterlimit:4;stroke-dasharray:none;stroke-opacity:1"
       id="path5348"
       d="m 420.62991,749.11895 c 1.87296,2.26066 2.7894,5.10479 3.78612,7.8206 1.09256,2.97627 2.13578,5.9701 3.24414,8.94094 0.23167,0.0597 0.13201,0.8069 0.45473,0.9233 0.0558,0.0201 0.1366,-0.18408 0.0837,-0.15713 -3.05594,1.55793 -6.08071,3.17627 -9.12107,4.7644 0,0 9.74114,-4.13894 9.74114,-4.13894 l 0,0 c -4.65618,2.55039 -8.9645,8.6834 -10.25976,3.61151 -0.84914,-3.05465 -1.85754,-6.0666 -2.97895,-9.03132 -0.97057,-2.48552 -1.83696,-5.24884 -3.85965,-7.09813 0,0 8.90957,-5.63523 8.90957,-5.63523 z"
       inkscape:connector-curvature="0" />
    <path
       style="fill:#800000;fill-opacity:1;stroke:none;stroke-width:3;stroke-linecap:round;stroke-linejoin:round;stroke-miterlimit:4;stroke-dasharray:none;stroke-opacity:1"
       id="path5350"
       d="m 405.39222,738.31439 c -0.81195,-1.71676 -0.75545,-3.34751 -0.1064,-5.0971 2.8387,-4.96636 9.26684,-7.33086 13.74344,-9.93304 0,0 -8.05004,6.50892 -8.05004,6.50892 l 0,0 c 15.52929,-9.07873 6.2145,-4.45435 3.75335,-0.88387 -0.80357,1.3815 -1.00083,2.7529 -0.16813,4.18258 0,0 -9.17222,5.22251 -9.17222,5.22251 z"
       inkscape:connector-curvature="0" />
    <path
       style="fill:#800000;fill-opacity:1;stroke:none;stroke-width:3;stroke-linecap:round;stroke-linejoin:round;stroke-miterlimit:4;stroke-dasharray:none;stroke-opacity:1"
       id="path5352"
       d="m 427.42692,748.49865 c -0.33352,-0.35898 -0.71876,-0.75447 -1.1673,-0.97394 -0.49374,-0.2416 -0.52898,0.12378 -0.52586,0.12207 2.99991,-1.64285 5.97205,-3.33592 8.95807,-5.00388 -0.57168,1.89028 1.93004,6.09776 2.79563,7.71905 2.1566,3.82358 4.56246,7.49785 6.8968,11.21314 3.98506,5.78474 3.9161,2.46124 -6.98343,8.18398 -0.51668,-2.4511 -0.74148,-4.88794 -0.65296,-7.39014 0.3447,-4.11119 1.74893,-8.02522 3.50242,-11.72743 3.65036,-6.88846 5.61042,-6.24057 14.01546,-10.79585 3.24594,-0.008 5.10482,2.71619 6.65469,5.19689 2.24613,3.94504 3.52215,8.31407 5.04246,12.56216 0.53429,1.67905 1.20501,3.29391 2.2268,4.73088 0,0 -8.95439,5.24168 -8.95439,5.24168 l 0,0 c -0.9775,-1.58293 -1.63686,-3.29359 -2.11183,-5.09525 -1.37612,-4.21277 -2.59324,-8.52393 -4.91925,-12.34161 -1.44538,-2.10028 -3.24911,-4.60336 -6.14087,-3.93991 2.65521,-1.58264 5.31041,-3.16528 7.96561,-4.74791 -0.79797,0.42271 -1.21211,0.57584 -1.88757,1.22024 -1.1261,1.07429 -1.85526,2.49927 -2.67369,3.79691 -1.84884,3.53121 -3.27895,7.31555 -3.64152,11.31521 -0.0891,2.36233 0.0926,4.65672 0.88176,6.90448 -12.54118,7.26512 -7.37983,8.24529 -9.73754,4.21356 -0.44168,-0.75528 -0.97229,-1.45656 -1.37934,-2.23319 -2.17316,-3.82591 -4.5483,-7.53069 -6.81681,-11.29977 -1.5202,-2.66875 -3.13278,-5.37072 -3.74325,-8.41965 7.24151,-4.32269 7.32481,-7.81334 11.40008,-3.96948 0,0 -9.00417,5.51776 -9.00417,5.51776 z"
       inkscape:connector-curvature="0" />
    <path
       style="fill:#800000;fill-opacity:1;stroke:none;stroke-width:3;stroke-linecap:round;stroke-linejoin:round;stroke-miterlimit:4;stroke-dasharray:none;stroke-opacity:1"
       id="path5354"
       d="m 485.1231,759.91422 c 0.95592,-1.62831 1.07227,-3.35548 0.67112,-5.15979 -1.21359,-2.97515 -4.11544,-4.51502 -6.93328,-5.68425 -1.98688,-0.61031 -4.35802,-1.29935 -6.44199,-0.62644 -0.40014,0.12921 -1.47218,0.81341 -1.10358,0.61107 2.64372,-1.45127 5.28595,-2.90522 7.92893,-4.35783 -0.21952,0.29793 -0.49951,0.55964 -0.65857,0.89379 -1.17477,2.46798 0.31241,5.59145 1.3244,7.82184 1.42614,2.58175 3.25719,5.1988 5.95536,6.59256 0.39661,0.20488 0.83466,0.31693 1.25199,0.47539 0.94153,0.1202 1.31925,0.3062 2.21633,-0.0911 0.3129,-0.13858 1.13999,-0.75426 0.83849,-0.59237 -2.69657,1.44788 -5.27607,3.11742 -8.02971,4.45357 -0.35212,0.17086 0.52933,-0.58242 0.73632,-0.91459 0.22702,-0.36433 0.37141,-0.77405 0.55712,-1.16108 1.07047,-2.96202 0.67473,-6.09107 0.26372,-9.13432 -0.21798,-0.96776 -0.2495,-1.97742 -0.4778,-2.94303 -0.96155,-4.06678 -11.30169,4.95664 9.08885,-5.29266 0.67231,2.69659 1.87975,5.24147 2.89185,7.82567 1.18663,3.4168 2.78754,6.75207 3.41665,10.34 0.12011,0.68502 0.16099,1.38159 0.24149,2.07238 0.11551,3.48186 -1.15848,6.63343 -3.69157,9.04471 -0.53572,0.50996 -1.14765,0.93334 -1.72147,1.40001 -8.34346,5.26357 -13.15649,8.30836 -22.51814,8.40066 -3.44879,-0.20181 -6.91513,-0.88408 -9.28936,-3.57372 -0.15417,-0.28649 -0.30834,-0.57298 -0.46251,-0.85947 0,0 9.05583,-5.15776 9.05583,-5.15776 l 0,0 c 0.10014,0.22053 0.20028,0.44106 0.30042,0.66158 2.0197,2.45769 5.47384,2.91867 8.46716,3.03561 3.28409,-0.12564 6.4022,-0.5722 9.49342,-1.75601 0.73579,-0.28178 2.81528,-1.39509 2.16302,-0.95311 -2.10453,1.42605 -4.36123,2.61349 -6.54184,3.92024 3.71431,-2.62762 5.56127,-4.79305 5.80513,-9.49259 -0.0572,-0.65946 -0.0754,-1.32346 -0.17158,-1.97837 -0.52177,-3.55491 -2.14363,-6.83424 -3.3606,-10.17848 -1.09357,-2.62827 -2.32266,-5.19228 -3.41899,-7.81758 10.11216,-5.89127 9.02781,-8.40916 9.81162,-1.46843 0.36606,3.18361 0.79934,6.43884 -0.009,9.59385 -1.81898,5.29636 -3.16395,4.01909 -10.71202,8.39131 -1.07311,0.6216 -2.41988,0.24762 -3.49138,-0.0933 -3.44159,-1.733 -5.63583,-4.416 -7.45288,-7.77606 -1.44339,-3.04216 -2.95415,-6.52109 -1.44635,-9.81926 8.47833,-5.12034 9.42209,-8.00784 17.62623,-5.11609 3.0857,1.37341 6.16564,3.14822 7.567,6.38769 0.57216,1.94463 0.64962,3.81195 -0.1235,5.72499 0,0 -9.61639,4.35076 -9.61639,4.35076 z"
       inkscape:connector-curvature="0" />
    <path
       style="fill:#800000;fill-opacity:1;stroke:none;stroke-width:3;stroke-linecap:round;stroke-linejoin:round;stroke-miterlimit:4;stroke-dasharray:none;stroke-opacity:1"
       id="path5402"
       d="m 422.01999,839.51655 c -0.40493,-1.74981 -1.63557,-2.61122 -3.18147,-3.322 -2.42897,-0.76471 -4.98397,-1.09214 -7.50619,-0.71576 -0.78645,0.16428 -1.26937,0.22451 -2.00959,0.53368 -0.27446,0.11463 -1.05186,0.55599 -0.78971,0.41545 3.98043,-2.13389 2.29673,-1.37034 1.34075,-0.14857 -0.87738,1.31228 -0.60902,2.63594 0.0676,3.95417 0.8759,1.61404 2.35502,2.40027 3.94462,3.15059 1.45058,0.66779 2.94282,0.99858 4.52778,0.8274 0.20247,-0.0294 0.40813,-0.042 0.60743,-0.0883 0.22017,-0.0511 0.88903,-0.29012 1.10627,-0.39535 0.17129,-0.083 0.66229,-0.37532 0.49474,-0.28504 -2.6815,1.44487 -3.25776,2.06915 -2.09957,0.96335 0.80685,-0.95012 1.45072,-1.99799 1.85014,-3.17767 0.26632,-0.62306 0.56655,-1.23085 0.84729,-1.84756 0.5361,-1.19478 0.34046,-0.60113 3.28163,-1.52745 0.10791,-0.034 9.4e-4,0.22673 0.0139,0.33913 0.0274,0.23756 0.13905,0.71237 0.18563,0.92448 0.46095,1.57704 1.18592,3.07115 1.9223,4.53646 0.71574,1.09149 1.22854,2.38433 2.25598,3.22898 0,0 -2.97973,1.85454 -2.97973,1.85454 l 0,0 c -1.01465,-0.92765 -1.56548,-2.2193 -2.29308,-3.36473 -0.7505,-1.48906 -1.47075,-3.00869 -1.9909,-4.59444 -0.0247,-0.10317 -0.38627,-1.19029 -0.24485,-1.2834 3.80633,-2.50598 3.64702,-2.79346 3.06874,-1.58011 -0.29379,0.60997 -0.57291,1.22787 -0.89609,1.82289 -0.3893,1.22927 -1.00235,2.30674 -1.79276,3.32894 -1.55192,1.67239 -3.85497,2.93228 -6.14567,3.22091 -1.61702,0.0892 -3.14799,-0.30145 -4.61284,-0.99052 -1.65168,-0.78781 -3.15333,-1.67744 -4.07111,-3.33744 -0.73224,-1.39703 -1.09056,-2.84815 -0.24537,-4.29805 1.66375,-2.40637 4.59641,-3.75051 7.416,-4.24243 2.5721,-0.28793 5.17249,0.0516 7.6283,0.8701 1.63184,0.78562 2.89947,1.74643 3.39809,3.57132 0,0 -3.09824,1.65645 -3.09824,1.65645 z"
       inkscape:connector-curvature="0" />
    <path
       style="fill:#800000;fill-opacity:1;stroke:none;stroke-width:3;stroke-linecap:round;stroke-linejoin:round;stroke-miterlimit:4;stroke-dasharray:none;stroke-opacity:1"
       id="path5404"
       d="m 438.889,835.53261 c -1.52048,-1.04746 -3.37369,-1.34573 -5.16527,-1.58119 -1.78529,-0.13346 -3.41804,0.23094 -4.98169,1.05512 -1.69036,0.96948 1.3601,-0.78413 2.26097,-1.22518 0.12321,-0.0603 -0.21663,0.2479 -0.16742,0.37595 0.0924,0.24034 0.31209,0.28768 0.52307,0.40037 1.66006,0.84627 3.46384,1.40699 5.25306,1.91685 1.91436,0.6194 3.91409,1.08819 5.58787,2.24528 0.97863,0.89091 1.42578,2.13016 1.40675,3.43142 -0.0944,1.67671 -1.09755,2.74009 -2.42317,3.63271 -3.52482,2.3318 -5.47527,2.62004 -9.33675,2.85341 -1.66346,0.2105 -2.8433,-0.32409 -3.81861,-1.63795 -0.4052,-0.57454 -0.4708,-1.21516 -0.53056,-1.89 0,0 3.10705,-1.60921 3.10705,-1.60921 l 0,0 c 0.0265,0.61966 0.0499,1.1882 0.42721,1.71645 0.93255,1.22661 2.07093,1.5536 3.60365,1.36884 1.44318,-0.0866 2.89421,-0.18386 4.30186,-0.53887 0.35661,-0.0899 1.31644,-0.57685 1.05709,-0.31609 -0.57042,0.57351 -1.36256,0.87212 -2.04384,1.30818 1.31343,-0.76616 2.38951,-1.70684 2.529,-3.31296 0.1013,-1.18108 -0.32255,-2.33224 -1.21439,-3.13077 -1.65517,-1.10702 -3.61562,-1.57473 -5.49197,-2.17659 -1.82492,-0.52575 -3.67018,-1.08245 -5.36097,-1.95823 -2.30095,-1.55951 1.46759,-2.85132 3.05794,-3.63785 1.59376,-0.77403 3.30571,-1.01739 5.07426,-0.86188 1.85206,0.2643 3.73782,0.62201 5.31471,1.69378 0,0 -2.96985,1.87841 -2.96985,1.87841 z"
       inkscape:connector-curvature="0" />
    <path
       style="fill:#800000;fill-opacity:1;stroke:none;stroke-width:3;stroke-linecap:round;stroke-linejoin:round;stroke-miterlimit:4;stroke-dasharray:none;stroke-opacity:1"
       id="path5406"
       d="m 447.24061,840.21849 c 1.10018,-0.90637 2.05681,-1.93629 2.73665,-3.19069 0.55857,-1.06351 0.12069,-1.71789 -0.88713,-2.17293 -1.87428,-0.39238 -5.53623,1.94942 -0.69286,-0.77195 -1.24626,0.82861 -1.48272,1.98611 -1.45393,3.38446 0.16082,1.64108 1.22187,2.7092 2.50231,3.61742 1.84701,1.13541 4.00995,1.666 6.10103,2.17523 1.10479,0.29801 2.21912,0.2846 3.32074,0.0167 0,0 -2.77962,2.10447 -2.77962,2.10447 l 0,0 c -1.1372,0.17962 -2.26914,0.16489 -3.38612,-0.15905 -2.1229,-0.54716 -4.31709,-1.0938 -6.18512,-2.27727 -1.35115,-0.99211 -2.46208,-2.1441 -2.67737,-3.88373 -0.0599,-1.46368 0.0687,-2.74513 1.30401,-3.72116 2.12878,-1.22727 4.27263,-3.06069 6.87125,-2.41099 1.08286,0.57835 1.72012,1.43332 1.1517,2.66381 -0.66225,1.29862 -1.57387,2.35436 -2.66023,3.32713 0,0 -3.26531,1.29856 -3.26531,1.29856 z"
       inkscape:connector-curvature="0" />
    <path
       style="fill:#800000;fill-opacity:1;stroke:none;stroke-width:3;stroke-linecap:round;stroke-linejoin:round;stroke-miterlimit:4;stroke-dasharray:none;stroke-opacity:1"
       id="path5408"
       d="m 465.09471,833.02374 c 0.17449,1.71812 1.01965,3.22954 1.77323,4.74841 0.44717,0.83104 0.9438,1.6377 1.51087,2.39264 0.11994,-1.22607 0.0108,0.17004 -2.98469,1.46681 -0.0897,0.0388 0.0292,-0.19341 0.0492,-0.2891 0.0842,-0.40369 0.22321,-0.79399 0.3354,-1.19041 0.32444,-1.22244 0.9828,-2.26606 1.73841,-3.26307 1.531,-1.84377 3.84191,-2.71951 5.93956,-3.74806 0.98153,-0.53081 1.74821,-0.47953 2.67174,0.10649 1.09065,0.90666 1.6825,2.18029 2.24731,3.44715 0.56225,1.02117 0.59525,2.19618 0.89817,3.29039 0,0 -3.08256,1.67982 -3.08256,1.67982 l 0,0 c -0.31353,-1.07636 -0.30211,-2.24602 -0.85096,-3.25995 -0.53313,-1.20017 -1.08531,-2.42604 -2.15295,-3.24947 -0.88801,-0.46946 -1.60171,-0.29782 -2.47445,0.16558 -1.16833,0.50236 -3.12322,1.5589 1.49484,-1.04752 0.59223,-0.33426 -0.44875,0.23904 -1.01775,0.75856 -0.16437,0.15008 -0.30666,0.32269 -0.46,0.48403 -0.78447,0.93123 -1.43353,1.94951 -1.78352,3.12377 -0.30535,1.23961 -1.2813,5.41524 -3.61251,3.32244 -0.54148,-0.79589 -1.03373,-1.62487 -1.48874,-2.47298 -0.74386,-1.55125 -1.61373,-3.07726 -1.84881,-4.80907 0,0 3.09823,-1.65646 3.09823,-1.65646 z"
       inkscape:connector-curvature="0" />
    <path
       style="fill:#800000;fill-opacity:1;stroke:none;stroke-width:3;stroke-linecap:round;stroke-linejoin:round;stroke-miterlimit:4;stroke-dasharray:none;stroke-opacity:1"
       id="path5410"
       d="m 486.13318,839.45477 c 0.31933,-1.21417 0.44098,-2.40227 -0.1101,-3.55408 -0.88682,-1.17082 -2.38337,-1.23986 -3.73023,-1.16165 -1.12764,0.30592 -4.05448,1.42261 1.05185,-0.84778 0.21085,-0.0937 -0.35925,0.29306 -0.51147,0.46649 -0.4796,0.54643 -0.44909,0.64555 -0.69917,1.31064 -0.41895,1.56481 -0.0704,3.0224 0.64618,4.43145 0.82543,1.22343 2.03344,1.31428 3.25189,0.63537 -0.7913,0.41737 -1.53817,0.93289 -2.37391,1.25212 -0.25713,0.0982 0.40878,-0.36987 0.59494,-0.57261 0.93615,-1.0195 1.54818,-2.22726 2.10138,-3.48149 0.91046,-2.52543 1.36749,-5.16509 1.64741,-7.82458 0.10364,-2.41729 -0.19478,-4.85075 -0.84293,-7.17987 -0.4336,-0.9114 -0.43069,-2.29617 -1.26476,-2.97813 -0.9567,0.30667 -3.2958,1.1682 2.45577,-1.36782 0.15214,-0.0671 -0.19413,0.27121 -0.27229,0.41798 -0.26833,0.50389 -0.30897,0.75021 -0.47991,1.31546 -0.6384,2.52312 -0.44078,5.05729 0.0235,7.58367 0.48671,3.01181 1.46562,5.87942 2.89098,8.56832 0.80435,1.28523 1.60564,2.5813 2.60967,3.72159 0,0 -2.99539,1.80346 -2.99539,1.80346 l 0,0 c -0.98531,-1.18751 -1.78395,-2.50951 -2.5898,-3.82273 -1.4233,-2.72716 -2.41386,-5.62628 -2.9192,-8.66833 -0.50239,-2.55509 -0.73021,-5.11782 -0.16175,-7.69017 0.46273,-1.84772 1.88102,-4.86807 4.44542,-3.70914 0.783,0.86743 0.90918,2.11111 1.30072,3.17155 0.63986,2.37598 0.94377,4.85024 0.86601,7.31113 -0.26686,2.68426 -0.724,5.34106 -1.58137,7.90726 -1.45941,3.56211 -2.5215,4.41833 -6.18176,6.4106 -1.42657,0.54109 -2.6908,0.25355 -3.55138,-1.07851 -0.74594,-1.48467 -1.14746,-3.01705 -0.76984,-4.67601 0.75501,-2.60712 3.53168,-4.04239 6.11844,-4.46729 1.47936,-0.0275 3.0421,0.19853 3.96289,1.4919 0.59355,1.20939 0.55235,2.45294 0.22944,3.74832 0,0 -3.1612,1.53288 -3.1612,1.53288 z"
       inkscape:connector-curvature="0" />
    <path
       style="fill:#800000;fill-opacity:1;stroke:none;stroke-width:3;stroke-linecap:round;stroke-linejoin:round;stroke-miterlimit:4;stroke-dasharray:none;stroke-opacity:1"
       id="path5412"
       d="m 500.92202,837.38407 c -0.40437,-1.49593 -1.37112,-2.66177 -2.67689,-3.45385 -1.46601,-0.71235 -3.01404,-0.91108 -4.57893,-0.45847 -1.66422,1.03282 0.85604,-0.54557 1.95877,-1.01917 0.19379,-0.0832 -0.30249,0.29598 -0.43106,0.46316 -0.46507,0.60469 -0.59917,1.21946 -0.70187,1.95629 -0.16313,1.68415 0.60888,2.95684 1.68033,4.16289 0.88248,1.00427 2.03189,1.64675 3.37793,1.6666 -0.0664,0.48684 2.18116,-0.86109 1.58885,-0.55332 -0.83567,0.43421 -1.61818,0.97405 -2.48085,1.35179 -0.19734,0.0864 0.31469,-0.29609 0.45095,-0.46295 0.13713,-0.16792 0.24408,-0.35838 0.36611,-0.53758 0.63318,-1.16718 0.73529,-2.49493 0.80681,-3.7948 0.0398,-0.45964 -0.006,-1.19126 0.0159,-1.54244 1.04105,-0.42345 2.03511,-0.98877 3.12314,-1.27036 0.14973,-0.0387 -0.0166,0.30956 -0.007,0.46394 0.0105,0.17181 0.0416,0.34177 0.0667,0.51205 0.1146,0.77791 0.31492,1.455 0.5973,2.18834 0.51817,1.42022 1.276,2.7234 2.1881,3.92259 0.37046,0.46262 0.76252,0.90812 1.18258,1.32628 0,0 -3.02054,1.84164 -3.02054,1.84164 l 0,0 c -0.40619,-0.44601 -0.79452,-0.90809 -1.16552,-1.38382 -0.92464,-1.22852 -1.67734,-2.57256 -2.21931,-4.01456 -0.1292,-0.32304 -1.0021,-3.0699 -0.75904,-3.26296 0.97366,-0.77335 2.08832,-1.35027 3.13247,-2.02541 0.0551,0.55015 -0.005,1.11781 -0.01,1.6729 -0.0657,1.34522 -0.16643,2.71744 -0.73698,3.95826 -1.19315,2.06337 -3.60661,3.49974 -5.96506,3.64731 -1.40377,-0.1722 -2.59395,-0.82041 -3.51699,-1.90234 -1.10417,-1.28675 -1.93743,-2.64842 -1.8142,-4.41794 0.23637,-2.85149 2.32745,-4.0164 5.0648,-5.06337 1.6449,-0.32696 3.23604,-0.0984 4.72765,0.69436 1.35691,0.88374 2.36548,2.11379 2.85407,3.67848 0,0 -3.09823,1.65646 -3.09823,1.65646 z"
       inkscape:connector-curvature="0" />
    <path
       style="fill:#800000;fill-opacity:1;stroke:none;stroke-width:3;stroke-linecap:round;stroke-linejoin:round;stroke-miterlimit:4;stroke-dasharray:none;stroke-opacity:1"
       id="path5414"
       d="m 523.43632,832.21358 c -2.09519,-0.35536 -4.22136,-0.53417 -6.34453,-0.45076 -1.06506,0.14259 -2.11167,0.32705 -3.11246,0.72776 -0.23838,0.0954 -0.92386,0.44699 -0.70095,0.31952 2.74235,-1.56819 3.03127,-2.19565 2.35483,-1.04054 0.62989,1.35997 3.82936,2.06126 5.14333,2.51375 2.76153,0.74711 5.44383,1.72931 8.10711,2.76394 1.12178,0.5071 2.28691,1.09774 2.83115,2.25917 0.37206,1.13255 -0.49549,1.83673 -1.32428,2.44261 -2.6277,1.86187 -4.98822,2.75137 -8.06033,3.13837 -2.35225,0.32771 -4.68342,0.0396 -6.99021,-0.431 -1.66093,-0.39917 -3.05466,-1.33742 -4.23139,-2.54534 -0.38733,-0.50055 -0.68852,-0.9444 -0.56726,-1.58206 0,0 3.20978,-1.46504 3.20978,-1.46504 l 0,0 c -0.40781,0.38684 0.11602,0.85994 0.34321,1.22446 1.12254,1.17151 2.47803,2.03485 4.07774,2.39592 2.28731,0.46363 4.60169,0.68408 6.9265,0.33501 0.99533,-0.14058 1.97334,-0.28507 2.93168,-0.60164 1.18463,-0.39133 3.98107,-1.9323 -0.89299,0.80731 0.69897,-0.43851 1.74789,-1.02073 1.5103,-1.98813 -0.46668,-1.08391 -1.62324,-1.59179 -2.62679,-2.06951 -2.64296,-1.05592 -5.31725,-2.02267 -8.06588,-2.77243 -1.63674,-0.55267 -4.80441,-1.20068 -5.50794,-2.95 0.60614,-2.266 5.22466,-3.23815 7.4199,-3.51074 2.15995,-0.0418 4.31799,0.12986 6.45196,0.47084 0,0 -2.88248,2.00853 -2.88248,2.00853 z"
       inkscape:connector-curvature="0" />
    <path
       style="fill:#800000;fill-opacity:1;stroke:none;stroke-width:3;stroke-linecap:round;stroke-linejoin:round;stroke-miterlimit:4;stroke-dasharray:none;stroke-opacity:1"
       id="path5416"
       d="m 534.11854,836.59207 c -1.17628,0.19585 -3.59985,1.35621 1.33608,-1.05321 0.17827,-0.087 -0.32103,0.23889 -0.44938,0.39014 -0.29382,0.34629 -0.30325,0.57836 -0.41696,1.00456 -0.0566,1.64992 1.08549,2.77764 2.26961,3.74615 1.30652,0.95136 2.756,1.51737 4.36179,1.15365 1.107,-0.50162 3.4541,-1.44091 -1.54344,0.9226 -0.13266,0.0627 0.51713,-0.38608 0.74432,-1.14036 0.16423,-1.60579 -1.23578,-2.63978 -2.3174,-3.59457 -1.60249,-1.12903 -3.41349,-1.91291 -5.28107,-2.48358 -0.45104,-0.13387 -0.90938,-0.2386 -1.36982,-0.33351 0,0 2.8964,-2.00583 2.8964,-2.00583 l 0,0 c 0.45358,0.11551 0.90561,0.23719 1.35108,0.38157 1.88597,0.62841 3.72402,1.44223 5.3384,2.61721 1.18651,1.04353 2.61083,2.1566 2.54121,3.89103 -0.31737,2.2729 -3.16796,3.2013 -5.15108,3.84604 -1.68131,0.19545 -3.17003,-0.40035 -4.50766,-1.41499 -1.28412,-1.06353 -2.43658,-2.2975 -2.4824,-4.06464 0.4461,-2.54815 3.10164,-3.60783 5.52323,-3.92776 0,0 -2.84291,2.0655 -2.84291,2.0655 z"
       inkscape:connector-curvature="0" />
    <path
       style="fill:#800000;fill-opacity:1;stroke:none;stroke-width:3;stroke-linecap:round;stroke-linejoin:round;stroke-miterlimit:4;stroke-dasharray:none;stroke-opacity:1"
       id="path5418"
       d="m 533.54675,826.70745 c 2.06212,0.0859 4.11094,-0.22675 6.15953,-0.42196 1.43868,-0.0444 2.93,-0.43408 4.36098,-0.17199 0,0 -2.86667,2.02065 -2.86667,2.02065 l 0,0 c -1.41641,-0.14405 -2.85011,0.13999 -4.26458,0.20441 -2.07364,0.1963 -4.1447,0.48411 -6.23217,0.43439 0,0 2.84291,-2.0655 2.84291,-2.0655 z"
       inkscape:connector-curvature="0" />
    <path
       style="fill:#800000;fill-opacity:1;stroke:none;stroke-width:3;stroke-linecap:round;stroke-linejoin:round;stroke-miterlimit:4;stroke-dasharray:none;stroke-opacity:1"
       id="path5420"
       d="m 546.90467,831.47486 c 0.76905,1.40778 1.49044,2.84046 2.28319,4.23541 0.38603,0.84771 0.9103,1.62827 1.55531,2.29985 1.34885,0.81746 -2.36761,3.21566 -3.11358,1.37848 -0.39465,-1.32689 0.0859,-2.71776 0.49693,-3.9846 0.57694,-1.46897 1.69965,-2.54089 2.96196,-3.4345 2.41361,-1.57053 3.82426,-2.78922 6.33585,-1.73702 1.18718,0.59503 1.92086,1.67599 2.62709,2.75502 0.51369,0.82975 1.07995,1.61386 1.39921,2.54289 0.055,0.10983 0.10997,0.21966 0.16496,0.3295 0,0 -3.05605,1.74065 -3.05605,1.74065 l 0,0 c -0.0627,-0.12473 -0.12545,-0.24947 -0.18818,-0.37421 -0.29259,-0.90775 -0.85276,-1.66182 -1.33774,-2.47409 -0.6707,-1.02661 -1.3592,-2.05432 -2.52074,-2.56926 -0.37655,-0.14315 -0.59598,-0.25097 -1.00315,-0.304 -1.4132,-0.18404 -3.89897,1.57785 0.83135,-1.18137 -1.28456,0.79788 -2.42215,1.84111 -3.06977,3.23028 -0.40604,1.16934 -0.89057,2.50444 -0.57102,3.7438 0.55428,1.36381 -2.10094,3.41424 -2.97912,2.17081 -0.62421,-0.72188 -1.159,-1.52339 -1.54862,-2.39638 -0.7791,-1.40826 -1.5038,-2.84643 -2.32529,-4.23042 0,0 3.05741,-1.74084 3.05741,-1.74084 z"
       inkscape:connector-curvature="0" />
    <path
       style="fill:#800000;fill-opacity:1;stroke:none;stroke-width:3;stroke-linecap:round;stroke-linejoin:round;stroke-miterlimit:4;stroke-dasharray:none;stroke-opacity:1"
       id="path5422"
       d="m 568.45079,837.38407 c -0.17335,-1.44698 -0.88932,-2.58881 -2.02529,-3.46721 -1.05012,-0.62585 -2.16451,-0.89598 -3.35651,-0.65494 -1.64864,0.91776 1.93363,-1.078 2.26619,-1.22965 0.13867,-0.0632 -0.20158,0.23112 -0.27802,0.36297 -0.29421,0.50754 -0.34277,1.02986 -0.35936,1.60013 0.0545,1.50255 0.6586,2.83969 1.4381,4.09329 0.66028,0.81308 1.26627,1.65242 2.38436,1.69812 1.05014,-0.11113 3.46801,-1.63208 -2.01757,1.28282 -0.14732,0.0783 0.27953,-0.18264 0.41284,-0.28296 0.44169,-0.33239 0.38048,-0.30671 0.74349,-0.72551 0.54119,-0.89861 0.75003,-1.94361 1.13437,-2.91559 0.63624,-1.55724 0.31289,-1.08174 3.49729,-2.0097 0.0432,-0.0126 0.0503,0.36956 0.0708,0.9377 0.10452,1.38674 0.5904,2.66408 1.17473,3.90837 0.32863,0.76839 0.76609,1.47018 1.28487,2.12223 0.14721,0.1745 0.0784,0.0958 0.20513,0.23731 0,0 -3.03479,1.82586 -3.03479,1.82586 l 0,0 c -0.12562,-0.15564 -0.0575,-0.0698 -0.2036,-0.25818 -0.51178,-0.68825 -0.96814,-1.40867 -1.28906,-2.20827 -0.59848,-1.28526 -1.09796,-2.60155 -1.25475,-4.02351 -0.007,-0.16635 -0.0123,-0.33279 -0.0211,-0.49906 -0.006,-0.10621 -0.11133,-0.26057 -0.022,-0.3183 4.88308,-3.15655 3.35969,-2.4549 2.78465,-1.18665 -0.42484,0.98904 -0.66914,2.02816 -1.10684,3.00721 -0.32172,0.45854 -0.61878,0.81212 -1.1067,1.10247 -1.49549,0.88995 -2.50011,2.11025 -4.12501,2.03691 -1.14945,-0.23343 -1.84373,-1.07993 -2.52576,-1.97981 -0.79627,-1.31233 -1.43806,-2.69838 -1.53753,-4.25682 -0.081,-2.53449 1.65277,-3.69861 4.28996,-4.42777 1.25315,-0.14976 2.44436,0.22993 3.50375,0.90695 1.15919,0.9549 1.94684,2.15448 2.17162,3.66513 0,0 -3.09823,1.65646 -3.09823,1.65646 z"
       inkscape:connector-curvature="0" />
    <path
       style="fill:#800000;fill-opacity:1;stroke:none;stroke-width:3;stroke-linecap:round;stroke-linejoin:round;stroke-miterlimit:4;stroke-dasharray:none;stroke-opacity:1"
       id="path5424"
       d="m 300.11016,875.08006 c -0.0682,2.52036 0.47634,5.02673 1.16976,7.4364 0.6038,2.44664 1.67414,4.73311 2.43502,7.12783 0.39658,1.01914 0.80094,2.0353 1.22773,3.0422 0.11859,0.28877 0.77047,0.0108 -3.05113,1.73249 -0.0984,0.0443 -0.0638,-0.20652 -0.10451,-0.30651 -0.12703,-0.31232 -0.27465,-0.6159 -0.40669,-0.92613 -0.79394,-1.85238 -1.01918,-3.84366 -1.33317,-5.81351 -0.48269,-3.06874 -0.77225,-6.17402 -0.72896,-9.28103 0.0201,-2.76458 0.66525,-5.45271 1.65392,-8.01876 1.34075,-2.84836 4.04514,-4.61459 7.06464,-5.50482 1.86698,-0.27016 3.17212,0.57979 4.24593,2.02998 1.07695,1.82347 1.2552,3.89127 1.00757,5.95031 -0.42232,2.48846 -1.8345,4.39499 -3.68309,6.02577 -2.48524,1.61446 -5.01147,3.82091 -8.11176,3.5709 -1.44333,-0.14382 -2.21294,-1.02831 -2.74978,-2.28642 -0.0267,-0.18623 -0.0535,-0.37245 -0.0802,-0.55868 0,0 3.10604,-1.62467 3.10604,-1.62467 l 0,0 c 0.0101,0.15708 0.0202,0.31417 0.0303,0.47125 0.47489,1.17467 1.19161,1.88302 2.52104,1.96433 0.73858,0.008 0.76267,0.0542 1.50313,-0.1339 0.28089,-0.0713 1.05099,-0.45047 0.82792,-0.26545 -0.6139,0.50921 -1.36073,0.8328 -2.03175,1.26398 -0.59128,0.37995 2.46955,-1.48692 1.79336,-1.10888 1.86376,-1.53554 3.31984,-3.35981 3.78067,-5.79266 0.28502,-1.96697 0.12682,-3.95302 -0.89912,-5.70373 -1.02856,-1.34783 -2.27348,-2.05877 -4.00582,-1.67172 -1.20288,0.43347 -2.15288,0.83445 1.39185,-1.04259 0.28497,-0.1509 -0.5232,0.37782 -0.77203,0.58291 -0.80323,0.66203 -1.3682,1.44778 -1.81696,2.38887 -1.02595,2.523 -1.6998,5.18444 -1.73613,7.92217 -0.0706,3.08622 0.22089,6.17212 0.71559,9.21813 0.32804,1.93358 0.55783,3.8894 1.35887,5.70233 0.0522,0.118 0.55377,1.20992 0.54533,1.21682 -0.86468,0.70746 -2.58371,3.16737 -3.11833,1.72097 -0.38977,-1.03494 -0.78755,-2.06681 -1.17802,-3.10148 -0.72994,-2.40986 -1.79231,-4.70443 -2.40345,-7.15301 -0.70184,-2.42942 -1.25651,-4.94398 -1.29168,-7.48199 0,0 3.12388,-1.5917 3.12388,-1.5917 z"
       inkscape:connector-curvature="0" />
    <path
       style="fill:#800000;fill-opacity:1;stroke:none;stroke-width:3;stroke-linecap:round;stroke-linejoin:round;stroke-miterlimit:4;stroke-dasharray:none;stroke-opacity:1"
       id="path5426"
       d="m 325.17171,869.76515 c -0.90287,-0.25023 -1.84823,-0.35913 -2.76175,-0.0695 -0.71959,0.22819 -3.48504,1.81671 1.29062,-0.79452 -1.72016,1.31401 -2.52007,3.13112 -2.5018,5.25806 0.24301,2.06647 1.54415,3.41594 3.32352,4.33401 1.23717,0.39011 2.51197,0.42089 3.75022,0.0142 0.30809,-0.10119 1.16988,-0.55001 0.89911,-0.37155 -0.70028,0.46153 -1.46449,0.81785 -2.19673,1.22678 1.60064,-1.07659 2.32235,-2.21653 2.27041,-4.15098 -0.33756,-2.40638 -2.33863,-3.43158 -4.30325,-4.43063 -1.83162,-0.63833 -3.80661,-1.04206 -5.68546,-0.40496 -2.05119,1.22918 2.7079,-2.65812 2.11554,-0.93241 0,0 -3.15593,1.55305 -3.15593,1.55305 l 0,0 c 0.0363,-1.76536 2.34072,-2.13722 3.80503,-2.74968 1.95861,-0.4634 3.93928,-0.0733 5.79464,0.64724 2.07071,1.06957 4.10436,2.21963 4.51135,4.72787 0.14213,2.02238 -0.47295,3.28251 -2.11591,4.49389 -3.13305,1.79441 -5.05196,3.48782 -8.58677,2.27223 -1.8513,-1.02573 -3.21119,-2.47818 -3.50269,-4.65258 -0.0782,-2.20444 0.64631,-4.11397 2.35048,-5.57995 2.58656,-1.51099 4.64684,-3.36326 7.6385,-2.32445 0,0 -2.93913,1.93384 -2.93913,1.93384 z"
       inkscape:connector-curvature="0" />
    <path
       style="fill:#800000;fill-opacity:1;stroke:none;stroke-width:3;stroke-linecap:round;stroke-linejoin:round;stroke-miterlimit:4;stroke-dasharray:none;stroke-opacity:1"
       id="path5428"
       d="m 342.94243,869.76515 c -0.89217,-0.26989 -1.82651,-0.1216 -2.66177,0.27631 -0.23813,0.11344 -0.91855,0.5166 -0.67862,0.40702 0.80812,-0.36905 1.59088,-0.79127 2.38631,-1.18691 -1.15186,1.43433 -1.30201,3.1248 -0.7798,4.82952 0.66541,1.60153 1.8248,2.83133 3.40715,3.52821 0.8712,0.27403 1.85525,0.28094 2.70199,-0.1014 0.2025,-0.0914 0.77546,-0.43401 0.57889,-0.33045 -0.8269,0.43564 -1.64675,0.88454 -2.47012,1.32682 1.19235,-1.21977 1.24579,-2.93301 1.03572,-4.52661 -0.5447,-2.37087 -1.90733,-3.65514 -4.04705,-4.63862 -0.90668,-0.3123 -1.95372,-0.79363 -2.94321,-0.52039 -0.13709,0.0378 -0.5013,0.26894 -0.37625,0.2012 0.90648,-0.4911 1.81369,-0.98084 2.72054,-1.47125 -0.0459,0.08 -0.0917,0.16004 -0.13757,0.24007 0,0 -3.18978,1.49489 -3.18978,1.49489 l 0,0 c 0.0261,-0.13025 0.0523,-0.2605 0.0784,-0.39075 3.31796,-2.05482 3.44618,-2.81522 6.7266,-1.45595 2.19877,1.0807 3.62983,2.47499 4.2278,4.92588 0.26412,1.66841 0.23917,3.44918 -0.85539,4.83876 -2.30245,1.42186 -4.2076,3.30629 -6.95522,2.3277 -1.62097,-0.82053 -2.83994,-2.08721 -3.5453,-3.77912 -0.57714,-1.79371 -0.48505,-3.57027 0.60887,-5.1692 2.1006,-1.3814 4.37613,-3.64745 7.10695,-2.75957 0,0 -2.93913,1.93384 -2.93913,1.93384 z"
       inkscape:connector-curvature="0" />
    <path
       style="fill:#800000;fill-opacity:1;stroke:none;stroke-width:3;stroke-linecap:round;stroke-linejoin:round;stroke-miterlimit:4;stroke-dasharray:none;stroke-opacity:1"
       id="path5430"
       d="m 354.7716,846.67295 c -0.26798,2.87486 0.27622,5.74067 0.7897,8.55806 0.70166,3.64511 1.34847,7.2987 1.95054,10.96193 0.47337,2.84323 0.70493,5.71431 0.82175,8.59151 0.18181,1.36451 -0.18575,2.83196 0.25728,4.15502 0,0 -3.08319,1.69726 -3.08319,1.69726 l 0,0 c -0.45043,-1.37345 -0.0913,-2.85989 -0.2358,-4.27836 -0.0903,-2.87219 -0.29354,-5.74102 -0.74888,-8.58122 -0.59158,-3.66272 -1.23829,-7.31391 -1.94769,-10.95538 -0.53101,-2.83938 -1.07633,-5.70686 -0.95285,-8.60922 0,0 3.14914,-1.5396 3.14914,-1.5396 z"
       inkscape:connector-curvature="0" />
    <path
       style="fill:#800000;fill-opacity:1;stroke:none;stroke-width:3;stroke-linecap:round;stroke-linejoin:round;stroke-miterlimit:4;stroke-dasharray:none;stroke-opacity:1"
       id="path5432"
       d="m 367.06491,869.85963 c 0.62989,1.62921 0.89281,3.35916 1.10136,5.08361 0.0984,0.36386 0.0472,2.6036 0.33896,2.72072 0,0 -3.01116,1.85848 -3.01116,1.85848 l 0,0 c -0.63742,-0.77211 -0.14197,-2.05807 -0.40461,-2.96668 -0.18497,-1.6835 -0.41779,-3.38274 -1.08196,-4.95529 0,0 3.05741,-1.74084 3.05741,-1.74084 z"
       inkscape:connector-curvature="0" />
    <path
       style="fill:#800000;fill-opacity:1;stroke:none;stroke-width:3;stroke-linecap:round;stroke-linejoin:round;stroke-miterlimit:4;stroke-dasharray:none;stroke-opacity:1"
       id="path5434"
       d="m 375.45447,847.44458 c 0.16738,3.53109 0.53603,7.04701 0.82936,10.56874 0.28358,4.28323 1.03834,8.47733 2.03308,12.64367 0.61054,2.19416 1.2025,4.3974 2.20033,6.45185 0.2505,0.46879 0.13117,0.25764 0.35316,0.63615 0,0 -3.05609,1.75824 -3.05609,1.75824 l 0,0 c -0.21347,-0.40288 -0.0988,-0.17941 -0.33988,-0.67247 -0.94941,-2.11021 -1.53257,-4.34126 -2.12792,-6.57268 -0.97328,-4.1891 -1.73449,-8.40155 -2.03033,-12.70104 -0.30044,-3.51068 -0.66525,-7.01506 -0.97845,-10.52441 0,0 3.11674,-1.58805 3.11674,-1.58805 z"
       inkscape:connector-curvature="0" />
    <path
       style="fill:#800000;fill-opacity:1;stroke:none;stroke-width:3;stroke-linecap:round;stroke-linejoin:round;stroke-miterlimit:4;stroke-dasharray:none;stroke-opacity:1"
       id="path5436"
       d="m 370.03508,864.26875 c 2.56359,-0.40197 5.15,-0.39937 7.73363,-0.27897 2.21316,0.0767 4.42739,0.3129 6.56559,0.90336 0,0 -2.86165,1.967 -2.86165,1.967 l 0,0 c -2.11629,-0.54661 -4.28772,-0.80693 -6.47138,-0.87856 -2.59646,-0.11157 -5.20457,-0.082 -7.76715,0.4079 0,0 2.80096,-2.12073 2.80096,-2.12073 z"
       inkscape:connector-curvature="0" />
    <path
       style="fill:#800000;fill-opacity:1;stroke:none;stroke-width:3;stroke-linecap:round;stroke-linejoin:round;stroke-miterlimit:4;stroke-dasharray:none;stroke-opacity:1"
       id="path5438"
       d="m 392.04354,872.47615 c -0.97501,-1.14907 -2.28699,-1.76277 -3.70872,-2.15619 -0.87742,-0.1931 -1.79579,-0.33941 -2.68177,-0.0904 -0.17395,0.0489 -0.6532,0.30691 -0.49761,0.21502 0.82795,-0.489 1.67846,-0.93874 2.5177,-1.40811 -1.1331,0.79083 -1.29898,1.86227 -1.09447,3.15122 0.26942,1.32461 0.98971,2.54289 1.99602,3.43919 1.02517,0.71606 2.05896,0.78599 3.21114,0.39521 1.89035,-1.01812 -1.19248,0.7494 -1.83977,1.01831 -0.24205,0.10055 0.39017,-0.35208 0.56159,-0.55035 0.55447,-0.64132 0.96516,-1.4085 1.36997,-2.14667 0.43165,-0.90681 0.76381,-1.86002 0.99655,-2.83667 1.06698,-0.43102 2.09087,-0.98977 3.20094,-1.29307 0.1043,-0.0285 -0.0247,0.26093 0.0173,1.00743 0.0419,0.74509 0.19007,1.46106 0.37121,2.18199 0.39149,1.18558 1.01304,2.25437 1.78042,3.23086 0.24409,0.19728 0.34364,0.15779 0.54244,-0.056 0,0 -2.7788,2.17927 -2.7788,2.17927 l 0,0 c -0.33488,-2e-4 -0.55955,-0.0536 -0.78418,-0.32703 -0.76902,-1.03378 -1.4023,-2.14292 -1.81845,-3.36959 -0.25032,-0.93605 -0.41371,-1.85509 -0.4398,-2.8242 -0.003,-0.12793 -0.11903,-0.30949 -0.0147,-0.38364 0.98721,-0.70182 2.09077,-1.2236 3.13616,-1.8354 -0.50234,0.86905 -0.45371,2.05576 -1.04158,2.90308 -1.42357,2.7403 -2.71967,4.06455 -6.03037,5.23464 -1.25309,0.29236 -2.36597,0.10923 -3.41153,-0.69021 -1.03153,-0.97732 -1.80543,-2.24177 -2.10342,-3.64017 -0.26263,-1.36506 -0.19494,-2.55794 0.90868,-3.5277 3.04833,-1.74324 3.70187,-2.71507 6.80092,-1.94293 1.46186,0.45142 2.78678,1.13896 3.83551,2.28279 0,0 -3.00139,1.83926 -3.00139,1.83926 z"
       inkscape:connector-curvature="0" />
    <path
       style="fill:#800000;fill-opacity:1;stroke:none;stroke-width:3;stroke-linecap:round;stroke-linejoin:round;stroke-miterlimit:4;stroke-dasharray:none;stroke-opacity:1"
       id="path5440"
       d="m 367.0706,855.83847 c 0.71767,1.92922 1.3303,3.8963 1.9804,5.84972 0.19307,0.55872 0.37793,1.1175 0.53033,1.68844 0,0 -3.08606,1.67038 -3.08606,1.67038 l 0,0 c -0.13719,-0.56995 -0.30313,-1.13048 -0.48273,-1.68877 -0.61741,-1.95945 -1.22243,-3.9324 -2.01072,-5.82966 0,0 3.06878,-1.69011 3.06878,-1.69011 z"
       inkscape:connector-curvature="0" />
    <path
       style="fill:#800000;fill-opacity:1;stroke:none;stroke-width:3;stroke-linecap:round;stroke-linejoin:round;stroke-miterlimit:4;stroke-dasharray:none;stroke-opacity:1"
       id="path5442"
       d="m 305.9424,806.73725 c -0.76346,-0.026 -1.56243,0.027 -2.28368,0.30732 -0.29305,0.1139 -1.11455,0.58249 -0.8379,0.4331 2.54949,-1.37665 2.78125,-1.72472 1.47895,-0.47665 -1.50517,1.72327 -1.8746,3.8932 -1.71675,6.10667 0.41254,2.43718 1.43734,3.95366 3.6589,5.01661 1.49438,0.43827 2.9947,0.23242 4.42867,-0.32582 0.3593,-0.13987 1.3851,-0.67562 1.05067,-0.48374 -0.66741,0.38292 -1.36775,0.70536 -2.05163,1.05805 1.88659,-1.71546 2.48248,-3.29603 2.02461,-5.79537 -1.00623,-2.65318 -3.31233,-4.24623 -5.79537,-5.38278 -1.82767,-0.70084 -3.80407,-1.25269 -5.69234,-0.50963 2.74235,-1.50566 3.21837,-2.27191 2.4419,-1.16648 0,0 -3.1973,1.46268 -3.1973,1.46268 l 0,0 c 0.49759,-1.71231 -0.004,-0.37464 3.52002,-2.44493 1.9604,-0.54889 3.94062,0.0291 5.77764,0.77252 2.56196,1.22353 4.91726,2.90348 5.98308,5.64546 0.54566,2.58362 0.0214,4.26919 -1.85394,6.15132 -3.04083,1.85052 -5.83642,4.05799 -9.51869,2.91615 -2.27738,-1.17598 -3.37859,-2.78988 -3.83081,-5.32631 -0.20635,-2.27096 0.11623,-4.53198 1.57678,-6.36835 1.97721,-2.12422 4.74903,-3.6965 7.68011,-3.65532 0,0 -2.84292,2.0655 -2.84292,2.0655 z"
       inkscape:connector-curvature="0" />
    <path
       style="fill:#800000;fill-opacity:1;stroke:none;stroke-width:3;stroke-linecap:round;stroke-linejoin:round;stroke-miterlimit:4;stroke-dasharray:none;stroke-opacity:1"
       id="path5444"
       d="m 324.28192,793.9587 c 0.16391,3.08004 0.77062,6.11353 1.33526,9.13933 0.50221,3.41443 1.35687,6.72909 2.79597,9.86603 0.4014,0.6874 0.6911,1.34745 1.41968,1.69634 0,0 -2.94101,1.90399 -2.94101,1.90399 l 0,0 c -0.70359,-0.49301 -1.08203,-1.14163 -1.47019,-1.91393 -1.39173,-3.18747 -2.27574,-6.52384 -2.77178,-9.96972 -0.58411,-3.02762 -1.18148,-6.05731 -1.49896,-9.1267 0,0 3.13103,-1.59534 3.13103,-1.59534 z"
       inkscape:connector-curvature="0" />
    <path
       style="fill:#800000;fill-opacity:1;stroke:none;stroke-width:3;stroke-linecap:round;stroke-linejoin:round;stroke-miterlimit:4;stroke-dasharray:none;stroke-opacity:1"
       id="path5446"
       d="m 318.14456,802.42662 c 2.49696,-0.33439 4.93632,-0.96052 7.37969,-1.55914 1.97339,-0.43112 3.94015,-0.88085 5.92482,-1.25829 0,0 -2.72874,2.06231 -2.72874,2.06231 l 0,0 c -1.9773,0.37907 -3.93853,0.82576 -5.90328,1.26448 -2.47578,0.61184 -4.95398,1.20365 -7.47345,1.61137 0,0 2.80096,-2.12073 2.80096,-2.12073 z"
       inkscape:connector-curvature="0" />
    <path
       style="fill:#800000;fill-opacity:1;stroke:none;stroke-width:3;stroke-linecap:round;stroke-linejoin:round;stroke-miterlimit:4;stroke-dasharray:none;stroke-opacity:1"
       id="path5448"
       d="m 340.04241,802.35876 c -1.97546,-0.10922 -3.95435,0.0865 -5.79946,0.81404 0.75747,-0.42252 1.49272,-0.8876 2.27242,-1.26756 0.30412,-0.1482 -0.58894,0.4362 -0.66639,0.76552 -0.14232,0.60518 0.45186,1.03729 0.82082,1.38544 1.79365,1.24966 3.95721,1.88031 6.02216,2.54257 1.71021,0.43045 3.38108,0.91335 4.77241,2.02421 1.06463,1.18476 0.91495,2.09069 -0.2645,3.08573 -3.51555,2.42407 -5.64115,3.00807 -9.63881,3.37979 -1.24462,-0.12463 -3.42852,0.78649 -4.3984,-0.32618 0,0 3.01498,-1.83205 3.01498,-1.83205 l 0,0 c 0.76167,0.72587 3.19786,0.0132 4.14116,0.11296 1.64322,-0.17087 3.31034,-0.34544 4.87112,-0.9254 0.31333,-0.11643 1.18797,-0.6027 0.91561,-0.40892 -0.67877,0.48296 -1.42967,0.85554 -2.14451,1.28331 1.15105,-0.71887 1.56233,-1.39661 0.54183,-2.50826 -1.35158,-1.07494 -3.01848,-1.48903 -4.65785,-1.95034 -2.11031,-0.69392 -4.32684,-1.33411 -6.14324,-2.65113 -2.75981,-2.71207 0.80042,-3.35735 3.27086,-4.84275 1.91191,-0.64312 3.94049,-0.84974 5.95227,-0.68951 0,0 -2.88248,2.00853 -2.88248,2.00853 z"
       inkscape:connector-curvature="0" />
    <path
       style="fill:#800000;fill-opacity:1;stroke:none;stroke-width:3;stroke-linecap:round;stroke-linejoin:round;stroke-miterlimit:4;stroke-dasharray:none;stroke-opacity:1"
       id="path5450"
       d="m 354.98081,804.46336 c 0.7175,1.51687 1.19761,3.12384 1.79846,4.68759 0.31035,0.86604 0.60278,1.73885 0.86274,2.6214 -0.007,-0.0233 -0.013,-0.0466 -0.0195,-0.0699 0,0 -3.0151,1.87531 -3.0151,1.87531 l 0,0 c -0.0247,-0.0392 -0.0495,-0.0785 -0.0743,-0.11774 -0.21294,-0.88783 -0.49,-1.7594 -0.78981,-2.6213 -0.57957,-1.55732 -1.05981,-3.15157 -1.81989,-4.63457 0,0 3.0574,-1.74084 3.0574,-1.74084 z"
       inkscape:connector-curvature="0" />
    <path
       style="fill:#800000;fill-opacity:1;stroke:none;stroke-width:3;stroke-linecap:round;stroke-linejoin:round;stroke-miterlimit:4;stroke-dasharray:none;stroke-opacity:1"
       id="path5452"
       d="m 350.00501,793.80092 c 0.66915,1.75252 1.21719,3.55317 1.9939,5.26256 0.45588,0.82614 0.78135,2.43955 1.92715,2.51809 0,0 -2.8907,2.00193 -2.8907,2.00193 l 0,0 c -1.20073,-0.43211 -1.56142,-1.74951 -2.05424,-2.81812 -0.7603,-1.70837 -1.30626,-3.50106 -2.03351,-5.22362 0,0 3.0574,-1.74084 3.0574,-1.74084 z"
       inkscape:connector-curvature="0" />
    <path
       style="fill:#800000;fill-opacity:1;stroke:none;stroke-width:3;stroke-linecap:round;stroke-linejoin:round;stroke-miterlimit:4;stroke-dasharray:none;stroke-opacity:1"
       id="path5454"
       d="m 375.52942,786.91173 c 0.71739,3.31317 1.99537,6.49301 3.11322,9.68967 1.1707,3.26616 2.34294,6.53875 3.30881,9.87274 0.26943,0.40683 0.17196,2.07705 0.86024,2.16648 0,0 -2.96006,1.93759 -2.96006,1.93759 l 0,0 c -0.73254,-0.57295 -0.66091,-1.64508 -0.92471,-2.45805 -0.89605,-3.35266 -2.03721,-6.63566 -3.21615,-9.89765 -1.13555,-3.20463 -2.40168,-6.38272 -3.27793,-9.66803 0,0 3.09658,-1.64275 3.09658,-1.64275 z"
       inkscape:connector-curvature="0" />
    <path
       style="fill:#800000;fill-opacity:1;stroke:none;stroke-width:3;stroke-linecap:round;stroke-linejoin:round;stroke-miterlimit:4;stroke-dasharray:none;stroke-opacity:1"
       id="path5456"
       d="m 370.8312,798.16853 c 2.85103,-0.30691 5.64484,-0.92899 8.4374,-1.55965 2.39047,-0.4732 4.63608,-1.4178 6.94595,-2.15579 0,0 -2.75059,2.13294 -2.75059,2.13294 l 0,0 c -2.28306,0.74714 -4.53289,1.60295 -6.8966,2.0786 -2.8278,0.63851 -5.66257,1.22312 -8.53764,1.61085 0,0 2.80148,-2.10695 2.80148,-2.10695 z"
       inkscape:connector-curvature="0" />
    <path
       style="fill:#800000;fill-opacity:1;stroke:none;stroke-width:3;stroke-linecap:round;stroke-linejoin:round;stroke-miterlimit:4;stroke-dasharray:none;stroke-opacity:1"
       id="path5458"
       d="m 394.94387,801.96983 c -0.83586,-1.36291 -2.45048,-1.81957 -3.95073,-1.9664 -0.85647,0.0459 -1.70717,0.29526 -2.48721,0.65039 -0.24033,0.10941 -0.92525,0.50935 -0.69157,0.38638 2.56066,-1.34747 3.03455,-1.97735 1.97323,-0.80908 -0.88994,1.32893 -0.43423,2.84215 0.14547,4.19341 0.62203,1.31715 1.73009,2.11554 3.02352,2.68966 1.22848,0.19246 4.22661,-1.46585 -0.73379,1.00289 -0.24109,0.11999 0.45251,-0.29536 0.65501,-0.47287 0.2161,-0.18942 0.39702,-0.41555 0.59553,-0.62333 0.97483,-1.13441 1.65268,-2.45877 2.10772,-3.87448 0.44236,-1.60418 -0.0405,-1.22562 3.4208,-1.79888 0.18998,-0.0315 0.0701,0.37905 0.11897,0.56531 0.0552,0.21025 0.1286,0.41529 0.19291,0.62293 0.40779,1.37178 1.09933,2.65871 1.89835,3.84104 0.29819,0.40215 0.7485,1.12817 1.24508,0.57718 0,0 -2.76269,2.19813 -2.76269,2.19813 l 0,0 c -0.74002,0.0672 -1.11547,-0.43332 -1.49794,-1.00847 -0.80021,-1.21828 -1.50773,-2.53206 -1.94255,-3.92678 -0.12411,-0.37151 -0.40219,-1.15574 -0.34416,-1.20699 3.88202,-3.42826 3.26011,-2.92005 2.84543,-1.35897 -0.46216,1.45313 -1.11484,2.83023 -2.08255,4.02212 -1.5489,1.88143 -4.11982,3.88888 -6.63057,3.37046 -1.34031,-0.65258 -2.49197,-1.53149 -3.14519,-2.91466 -0.61026,-1.44265 -1.12511,-3.05353 -0.32146,-4.53068 1.39702,-1.86541 4.7453,-3.50562 7.24993,-3.59932 1.61203,0.24224 3.25643,0.78353 4.17587,2.23017 0,0 -3.05741,1.74084 -3.05741,1.74084 z"
       inkscape:connector-curvature="0" />
    <path
       style="fill:#800000;fill-opacity:1;stroke:none;stroke-width:3;stroke-linecap:round;stroke-linejoin:round;stroke-miterlimit:4;stroke-dasharray:none;stroke-opacity:1"
       id="path5460"
       d="m 389.94865,788.77887 c 1.21202,1.12437 2.31983,2.37862 3.39247,3.63949 0.37274,0.53621 0.85565,0.96696 1.37108,1.35923 0,0 -2.98226,1.87346 -2.98226,1.87346 l 0,0 c -0.51023,-0.427 -0.99542,-0.88476 -1.3737,-1.43736 -1.06168,-1.25964 -2.14948,-2.52727 -3.39931,-3.60149 0,0 2.99172,-1.83333 2.99172,-1.83333 z"
       inkscape:connector-curvature="0" />
    <path
       style="fill:#800000;fill-opacity:1;stroke:none;stroke-width:3;stroke-linecap:round;stroke-linejoin:round;stroke-miterlimit:4;stroke-dasharray:none;stroke-opacity:1"
       id="path5462"
       d="m 397.03065,788.55856 c 1.30721,1.07595 2.25855,2.45015 3.23925,3.80616 0.46172,0.78816 1.05778,1.48151 1.70824,2.1179 0,0 -3.00618,1.83814 -3.00618,1.83814 l 0,0 c -0.63383,-0.67297 -1.22801,-1.38763 -1.69642,-2.18799 -0.9366,-1.32133 -1.84837,-2.67669 -3.18402,-3.64037 0,0 2.93913,-1.93384 2.93913,-1.93384 z"
       inkscape:connector-curvature="0" />
    <path
       style="fill:#800000;fill-opacity:1;stroke:none;stroke-width:3;stroke-linecap:round;stroke-linejoin:round;stroke-miterlimit:4;stroke-dasharray:none;stroke-opacity:1"
       id="path5464"
       d="m 405.95732,781.195 c -0.52754,2.30531 -0.26355,4.6533 0.0182,6.9697 0.42753,2.79707 1.34477,5.4815 2.06558,8.20916 0.37008,2.03987 0.85578,4.05798 1.21198,6.10058 0.16674,0.9064 0.27136,1.82119 0.3342,2.74009 0.003,0.055 0.0623,0.18138 0.01,0.1651 -0.0933,-0.0289 0.0112,-0.28151 0.0211,-0.31237 -0.96478,0.54495 -1.91138,1.12343 -2.89433,1.63486 -0.0945,0.0492 0.0842,-0.12444 0.47465,-0.5162 1.10275,-1.00638 2.12802,-2.08541 3.14994,-3.17149 0.9578,-0.87175 2.02583,-1.60981 3.04538,-2.40622 1.45028,-0.96727 3.51397,-3.29174 4.85682,-1.48285 0.74985,1.25281 1.16597,2.68424 1.61331,4.06734 0.41263,1.30392 0.72043,2.63864 0.99998,3.9766 0.008,0.11406 0.20383,0.90873 0.0206,0.20398 0,0 -2.80161,2.17218 -2.80161,2.17218 l 0,0 c -0.29474,-0.2613 -0.28798,-0.33783 -0.32587,-0.71926 -0.2268,-1.33796 -0.51543,-2.66835 -0.93267,-3.96092 -0.44852,-1.33799 -0.83611,-2.73967 -1.59824,-3.93815 -0.19403,-0.23432 -0.3383,-0.37946 -0.66823,-0.33112 -0.0761,0.0112 -0.28402,0.11512 -0.21818,0.0753 1.88834,-1.14184 3.73168,-2.13325 2.31285,-1.36607 -1.02596,0.79774 -2.08001,1.55761 -3.09336,2.3712 -1.03346,1.05902 -2.00539,2.17706 -3.11099,3.16705 -1.04695,1.00313 -3.33743,3.67939 -4.00006,1.9896 -0.0252,-0.91506 -0.12007,-1.82574 -0.26357,-2.72983 -0.33392,-2.04095 -0.81036,-4.05575 -1.16258,-6.0932 -0.70012,-2.74927 -1.62271,-5.44711 -2.07443,-8.25509 -0.29535,-2.33283 -0.58066,-4.68907 -0.1513,-7.0271 0,0 3.16119,-1.53288 3.16119,-1.53288 z"
       inkscape:connector-curvature="0" />
    <path
       style="fill:#800000;fill-opacity:1;stroke:none;stroke-width:3;stroke-linecap:round;stroke-linejoin:round;stroke-miterlimit:4;stroke-dasharray:none;stroke-opacity:1"
       id="path5466"
       d="m 427.93013,785.41626 c -0.67843,2.23457 -0.39866,4.6155 -0.27683,6.90873 0.0549,2.93314 0.42973,5.83863 0.76737,8.74804 0.21737,0.55513 0.002,3.07206 0.49371,3.39334 0,0 -3.01887,1.84156 -3.01887,1.84156 l 0,0 c -0.74766,-0.95143 -0.17268,-2.54515 -0.52486,-3.63846 -0.30465,-2.92256 -0.67585,-5.83874 -0.74466,-8.78014 -0.1432,-2.33751 -0.39459,-4.70774 0.0987,-7.02281 0,0 3.20546,-1.45026 3.20546,-1.45026 z"
       inkscape:connector-curvature="0" />
    <path
       style="fill:#800000;fill-opacity:1;stroke:none;stroke-width:3;stroke-linecap:round;stroke-linejoin:round;stroke-miterlimit:4;stroke-dasharray:none;stroke-opacity:1"
       id="path5468"
       d="m 424.17741,792.69879 c 2.52109,0.6477 5.12391,1.01427 7.72592,1.04529 1.42103,0.0294 2.80593,-0.26033 4.14903,-0.69412 0,0 -2.74333,2.1187 -2.74333,2.1187 l 0,0 c -1.36433,0.38338 -2.75695,0.64168 -4.18324,0.58373 -2.63252,-0.089 -5.2447,-0.48131 -7.81791,-1.04032 0,0 2.86953,-2.01328 2.86953,-2.01328 z"
       inkscape:connector-curvature="0" />
    <path
       style="fill:#800000;fill-opacity:1;stroke:none;stroke-width:3;stroke-linecap:round;stroke-linejoin:round;stroke-miterlimit:4;stroke-dasharray:none;stroke-opacity:1"
       id="path5470"
       d="m 436.12625,799.93183 c 1.36892,0.40862 2.73419,0.28407 4.01439,-0.31908 1.83896,-1.06246 -1.29099,0.75202 -1.98304,1.06252 -0.16171,0.0726 0.24343,-0.25877 0.34917,-0.40102 0.27471,-0.36954 0.41006,-0.73075 0.45986,-1.18063 -0.3824,-0.98471 -1.77797,-0.71483 -2.59677,-0.63799 0.55867,-0.6898 -3.23825,1.40248 -2.33373,0.91114 3.84466,-2.0884 2.18083,-1.28379 1.0667,-0.0826 -1.11077,1.35048 -0.87859,2.81385 -0.25777,4.32092 0.82526,1.7553 2.31527,2.78531 4.09667,3.40667 1.42656,0.45963 2.84302,0.4379 4.2818,0.0886 0,0 -2.76883,2.10207 -2.76883,2.10207 l 0,0 c -1.48665,0.2755 -2.93996,0.25085 -4.38556,-0.25379 -1.84298,-0.7046 -3.38123,-1.82042 -4.24994,-3.64749 -0.67123,-1.57923 -1.00988,-3.17897 0.0802,-4.66695 1.82497,-2.1643 4.51397,-3.67042 7.27201,-4.24793 1.11108,-0.0716 2.48365,-0.12263 2.9353,1.12653 9.9e-4,2.43224 -2.86324,3.30646 -4.70294,4.26006 -1.37088,0.51212 -2.82042,0.58784 -4.21669,0.0928 0,0 2.93913,-1.93384 2.93913,-1.93384 z"
       inkscape:connector-curvature="0" />
    <path
       style="fill:#800000;fill-opacity:1;stroke:none;stroke-width:3;stroke-linecap:round;stroke-linejoin:round;stroke-miterlimit:4;stroke-dasharray:none;stroke-opacity:1"
       id="path5472"
       d="m 411.71033,852.33353 c -0.14027,3.35338 0.17125,6.69834 0.63444,10.01541 0.74554,4.4411 1.59991,8.86235 2.49779,13.27483 0.51283,2.27079 1.05899,4.53421 1.65646,6.78427 0.48962,1.30549 0.89424,-0.0931 -2.91575,1.69325 0,0 3.23769,-1.41787 3.23769,-1.41787 l 0,0 c -2.64467,1.43347 -2.95026,2.94639 -3.407,1.39076 -0.51077,-2.28848 -1.02996,-4.57506 -1.54039,-6.86361 -0.85703,-4.42814 -1.71227,-8.85633 -2.49038,-13.29925 -0.48411,-3.30818 -0.81307,-6.63875 -0.79675,-9.98609 0,0 3.12389,-1.5917 3.12389,-1.5917 z"
       inkscape:connector-curvature="0" />
    <path
       style="fill:#800000;fill-opacity:1;stroke:none;stroke-width:3;stroke-linecap:round;stroke-linejoin:round;stroke-miterlimit:4;stroke-dasharray:none;stroke-opacity:1"
       id="path5474"
       d="m 431.90699,875.89606 c -0.48232,-1.51427 -1.49712,-2.43576 -2.88997,-3.10877 -1.81393,-0.67269 -3.61383,-0.25552 -5.32067,0.49674 -0.29059,0.16602 -1.16449,0.66026 -0.87176,0.49806 4.37354,-2.42342 1.78886,-1.11436 0.93309,-0.23178 -0.44464,0.45857 -0.48196,0.59667 -0.79517,1.13619 -0.61871,1.31014 -0.32419,2.57082 0.44869,3.72296 1.03957,1.23178 2.42816,1.3945 3.94197,1.32784 0.26643,-0.0556 0.54291,-0.0755 0.7993,-0.16691 0.27227,-0.097 1.02419,-0.53602 0.77278,-0.3934 -0.72412,0.41079 -1.42537,0.87214 -2.1914,1.19817 -0.29913,0.12732 0.52201,-0.38806 0.77313,-0.59453 0.75629,-0.62185 0.74934,-0.65604 1.41171,-1.35185 0.94389,-1.20403 1.39919,-2.64973 1.64401,-4.13738 -0.32974,-1.49864 2.79719,-3.74855 3.38292,-2.03926 0.31742,1.73918 0.99608,3.36062 1.75404,4.94608 0.75509,1.59822 1.77536,2.97774 3.33817,3.83552 0.59089,0.25009 0.30518,0.19639 0.84519,0.21509 0,0 -2.87511,2.0256 -2.87511,2.0256 l 0,0 c -0.58783,-0.14482 -0.28482,-0.0397 -0.90055,-0.33875 -1.56605,-0.95821 -2.63257,-2.38081 -3.41166,-4.0341 -0.75998,-1.59009 -1.46955,-3.209 -1.83251,-4.94346 -0.57979,-1.55938 3.68839,-3.66582 2.85095,-1.20775 -0.25719,1.53925 -0.6947,3.04534 -1.60089,4.34042 -1.97418,2.19935 -4.60878,4.21783 -7.56759,4.69742 -1.61716,0.0134 -3.07247,-0.29743 -4.14276,-1.61507 -0.82831,-1.23803 -1.20276,-2.61795 -0.62307,-4.0583 1.29736,-2.59477 4.18681,-3.6509 6.63335,-4.97325 1.79987,-0.70547 3.66057,-1.02976 5.50882,-0.26459 1.4214,0.7429 2.49297,1.73117 3.04239,3.27822 0,0 -3.0574,1.74084 -3.0574,1.74084 z"
       inkscape:connector-curvature="0" />
    <path
       style="fill:#800000;fill-opacity:1;stroke:none;stroke-width:3;stroke-linecap:round;stroke-linejoin:round;stroke-miterlimit:4;stroke-dasharray:none;stroke-opacity:1"
       id="path5476"
       d="m 443.12362,869.85963 c 0.86919,1.88303 1.97441,3.64051 3.1804,5.32312 1.11671,1.55921 2.4823,2.86848 4.24471,3.64158 0.57777,0.093 0.74119,0.1912 1.30155,0.0222 0.19933,-0.0601 0.74616,-0.36841 0.56627,-0.26358 -4.27462,2.49121 -2.32892,1.37187 -1.35849,0.3285 1.16646,-1.40106 1.36834,-3.20342 1.53167,-4.95198 0.21308,-1.64707 -0.17281,-3.21332 -0.89792,-4.68201 -0.094,-0.12384 -0.72122,-1.35168 -0.91155,-1.22849 0,0 2.94557,-1.96958 2.94557,-1.96958 l 0,0 c 0.45595,0.38111 0.68665,0.98286 1.00349,1.47082 0.7476,1.51851 1.15204,3.1648 0.95533,4.86554 -0.14018,1.78977 -0.31236,3.65599 -1.41703,5.14483 -1.61014,1.88017 -4.06461,3.90074 -6.61959,3.1857 -1.77688,-0.85578 -3.17088,-2.2074 -4.30965,-3.81268 -1.21321,-1.70063 -2.31466,-3.47492 -3.27216,-5.33313 0,0 3.0574,-1.74084 3.0574,-1.74084 z"
       inkscape:connector-curvature="0" />
    <path
       style="fill:#800000;fill-opacity:1;stroke:none;stroke-width:3;stroke-linecap:round;stroke-linejoin:round;stroke-miterlimit:4;stroke-dasharray:none;stroke-opacity:1"
       id="path5478"
       d="m 471.58714,868.94158 c -1.58897,-1.09484 -3.48349,-1.40501 -5.3696,-1.26779 -1.02627,0.21165 -2.07575,0.42189 -3.02054,0.89815 -0.26129,0.13172 -1.00641,0.59633 -0.74652,0.46186 2.40422,-1.24392 3.00898,-2.01142 2.01668,-0.90082 -0.48955,1.49276 1.75021,2.15339 2.77272,2.61657 2.32224,0.88055 4.71288,1.55462 7.06433,2.34786 1.40162,0.49787 2.98268,0.96441 3.54378,2.45755 0.15847,1.64128 -1.0754,2.68792 -2.32077,3.51379 -3.76194,2.31544 -5.59677,3.30592 -9.81213,3.32559 -1.75205,-0.18994 -3.98704,-0.19453 -4.93207,-1.94011 -0.0283,-0.77209 -0.0998,-0.38591 0.26534,-1.14795 0,0 3.19903,-1.41291 3.19903,-1.41291 l 0,0 c -0.43248,0.5346 -0.31706,0.2495 -0.41842,0.82242 0.77058,1.61595 3.16309,1.4711 4.65977,1.65752 1.67549,-0.0386 3.19895,-0.20238 4.77552,-0.81137 0.34607,-0.13367 1.31103,-0.67627 1.01913,-0.4473 -0.60943,0.47805 -1.32416,0.80394 -1.98624,1.20591 1.16852,-0.677 2.44413,-1.58581 2.48368,-3.06838 -0.45568,-1.37522 -2.10967,-1.73536 -3.32499,-2.22312 -2.36307,-0.79021 -4.75923,-1.48177 -7.08767,-2.37413 -1.33487,-0.60396 -3.43469,-1.32376 -3.11689,-3.14067 1.10152,-1.64712 0.21633,-0.47718 3.89709,-2.66504 1.1779,-0.70015 2.50361,-1.02842 3.85095,-1.21838 1.96124,-0.0598 3.90458,0.31434 5.55767,1.43234 0,0 -2.96985,1.87841 -2.96985,1.87841 z"
       inkscape:connector-curvature="0" />
    <path
       style="fill:#800000;fill-opacity:1;stroke:none;stroke-width:3;stroke-linecap:round;stroke-linejoin:round;stroke-miterlimit:4;stroke-dasharray:none;stroke-opacity:1"
       id="path5480"
       d="m 483.41444,875.07338 c 1.01464,-0.86549 1.73179,-1.88292 2.19883,-3.12506 0.47057,-1.25066 0.0965,-2.22855 -1.07154,-2.82434 -1.08627,-0.37174 -2.27741,-0.35161 -3.33396,0.13437 -0.29436,0.1354 -1.13322,0.62199 -0.83198,0.50266 0.75594,-0.29946 1.46907,-0.69734 2.20361,-1.04601 -1.68998,1.87913 -1.31274,4.12609 -0.40589,6.2736 1.09125,2.38798 2.96319,4.02307 5.32059,5.07426 1.14331,0.32477 2.28093,0.38151 3.39114,-0.0899 0.25999,-0.11039 0.9971,-0.5309 0.75186,-0.39079 -0.7368,0.42094 -1.4846,0.82233 -2.2269,1.23349 0.24659,-0.18255 0.49318,-0.3651 0.73977,-0.54765 0,0 3.22045,-1.28429 3.22045,-1.28429 l 0,0 c -0.24199,0.19123 -0.48399,0.38246 -0.72599,0.5737 -3.02383,1.77841 -4.63833,3.46914 -8.02864,2.41177 -2.39085,-1.14619 -4.29655,-2.86008 -5.43162,-5.30209 -0.961,-2.22358 -1.44087,-4.59356 0.19625,-6.63893 2.57472,-1.70299 4.88457,-4.00507 8.08584,-2.81021 1.21795,0.72672 1.80581,1.84452 1.30672,3.25319 -0.42402,1.28093 -1.06771,2.37008 -2.10638,3.25515 0,0 -3.25216,1.34709 -3.25216,1.34709 z"
       inkscape:connector-curvature="0" />
    <path
       style="fill:#800000;fill-opacity:1;stroke:none;stroke-width:3;stroke-linecap:round;stroke-linejoin:round;stroke-miterlimit:4;stroke-dasharray:none;stroke-opacity:1"
       id="path5484"
       d="m 346.39387,695.41838 c -2.3865,-1.13604 -4.96844,-1.73416 -7.56734,-2.13677 -4.27212,-0.5318 -8.57156,-0.61162 -12.85571,-0.23184 -5.32004,0.59581 -10.50258,1.92573 -15.63567,3.39558 -5.5924,1.65535 -10.83306,4.24173 -15.96772,6.96549 -4.34861,2.28661 -14.72972,8.12052 4.65495,-2.84904 0.87032,-0.49251 -1.71902,1.02228 -2.57912,1.53242 -3.8799,2.30119 -1.37228,0.79875 -5.2943,3.16409 -5.61564,3.29137 -11.04554,6.87974 -16.40177,10.57402 -5.26112,3.71223 -10.19266,7.86059 -14.99029,12.1471 -4.65404,4.09977 -8.45687,8.99662 -12.01853,14.04126 -3.53871,5.15284 -6.45112,10.67965 -9.05733,16.34939 -2.92532,6.26754 -5.34071,12.74009 -7.55435,19.2864 -2.41915,7.27092 -4.177,14.73824 -5.58763,22.2633 -1.39481,7.06039 -1.94098,14.23403 -2.21985,21.41239 -0.19434,6.23945 0.40848,12.43196 1.42475,18.57736 0.89145,5.67313 2.53604,11.16044 4.2633,16.62107 1.62004,4.83142 3.65692,9.50639 5.94527,14.0549 2.11594,4.08035 4.86239,7.71574 7.99036,11.05999 3.17801,3.20985 6.54483,6.23796 10.01766,9.12545 3.91429,3.16371 8.07385,6.0036 12.2328,8.83138 4.67657,3.21003 9.62023,5.97182 14.67068,8.53973 5.85839,2.9805 11.99993,5.34727 18.18393,7.55178 6.40976,2.35235 12.89704,4.48888 19.42076,6.50156 7.43983,2.25426 14.9812,4.10133 22.58567,5.70077 7.82482,1.61061 15.6835,3.02395 23.57784,4.24305 7.70574,1.13669 15.46923,1.75978 23.23211,2.34465 7.93849,0.62132 15.89497,0.66902 23.84386,0.28424 7.31815,-0.45733 14.63902,-0.97425 21.9296,-1.76708 6.67033,-0.71431 13.31921,-1.60351 20.00464,-2.16899 6.63729,-0.53305 13.25625,-1.24368 19.87715,-1.94477 5.97689,-0.74278 11.9659,-1.37758 17.93133,-2.20967 5.95889,-0.88757 11.84506,-2.1832 17.67203,-3.7011 5.40791,-1.36069 10.72061,-3.06011 16.04772,-4.70214 4.84249,-1.64277 9.59937,-3.51228 14.24078,-5.65685 4.34564,-1.97115 8.64507,-4.04054 12.96785,-6.06031 4.33146,-2.14804 8.82283,-3.9466 13.19843,-6.00252 0.72639,-0.36944 1.45514,-0.73426 2.17915,-1.10832 1.59039,-0.82166 2.59062,-1.35206 4.14277,-2.23683 0.6782,-0.38659 2.69937,-1.56965 2.02158,-1.18233 -10.72031,6.12597 -13.98139,8.24186 -8.52094,4.76904 3.86634,-2.5063 7.54551,-5.27651 10.96478,-8.36297 3.23318,-3.09927 6.20434,-6.46484 8.76993,-10.13539 2.36101,-3.48914 3.96639,-7.36248 5.2538,-11.35067 1.25416,-4.15745 1.85575,-8.45871 2.45172,-12.74727 0.54628,-4.01385 0.67175,-8.06634 0.76286,-12.11096 0.11087,-3.95328 -0.0914,-7.90358 -0.43124,-11.84108 -0.56832,-4.38388 -1.54435,-8.71073 -2.55055,-13.0126 -1.12698,-4.71118 -2.46522,-9.35971 -3.96274,-13.96464 -1.683,-5.56835 -4.393,-10.68578 -7.38268,-15.64292 -3.35323,-5.45161 -7.22238,-10.54564 -11.12722,-15.60635 -4.05591,-5.10015 -8.48345,-9.87792 -13.04618,-14.52363 -4.69727,-4.68501 -9.56244,-9.19923 -14.45702,-13.67649 -4.9299,-4.55052 -9.99631,-8.93514 -15.30021,-13.04269 -5.24683,-4.05393 -11.07197,-7.18626 -16.93555,-10.22862 -5.52066,-3.05901 -11.37216,-5.4111 -17.27282,-7.61616 -5.45123,-1.91941 -10.97556,-3.6451 -16.59949,-4.9805 -5.40994,-1.19752 -10.80251,-2.47016 -16.19252,-3.75384 -5.10154,-1.24299 -10.23647,-2.34306 -15.38121,-3.39082 -4.81651,-0.80897 -9.60347,-1.7785 -14.42115,-2.57993 -4.23467,-0.71783 -8.45664,-1.51313 -12.69439,-2.21254 -4.18413,-0.73728 -8.3669,-1.49098 -12.56548,-2.14297 -4.72852,-0.64286 -9.47456,-1.12514 -14.22049,-1.61741 -3.80435,-0.39839 -7.62885,-0.52717 -11.45124,-0.58637 -3.18821,-0.0673 -6.38145,0.0956 -9.56357,-0.13124 -2.80948,-0.20057 -5.60875,-0.38867 -8.40139,-0.75137 -2.68584,-0.43096 -5.35787,-0.85496 -8.07486,-1.0571 -2.69008,-0.2379 -5.411,-0.42124 -8.07975,-0.85293 -3.01938,-0.50692 -6.08195,-0.62852 -9.13606,-0.73054 -3.1183,0.11465 -6.22076,0.31951 -9.29112,0.87724 -0.34773,0.10663 -0.69547,0.21327 -1.0432,0.31991 0,0 12.07218,-9.21202 12.07218,-9.21202 l 0,0 c 0.35944,-0.0627 0.71887,-0.12535 1.07831,-0.18803 3.07283,-0.37898 6.17832,-0.48457 9.27193,-0.52141 3.14345,0.0938 6.2854,0.26759 9.39741,0.74748 2.64574,0.32612 5.29649,0.62785 7.95461,0.83204 2.74482,0.24943 5.45911,0.67641 8.18622,1.065 2.73293,0.35756 5.48973,0.49558 8.23511,0.72851 3.16307,0.10886 6.32958,0.01 9.49318,0.12728 3.78825,0.11907 7.56942,0.36227 11.33237,0.83208 4.756,0.57329 9.52694,1.01253 14.27502,1.65385 4.22075,0.64835 8.42651,1.3919 12.63391,2.12112 4.20843,0.73079 8.40446,1.52982 12.60938,2.27995 4.79563,0.86971 9.57891,1.80624 14.37702,2.66226 5.12356,1.04425 10.21312,2.24381 15.28626,3.50988 5.41202,1.25772 10.83467,2.46899 16.24306,3.74206 5.60786,1.46345 11.15087,3.1624 16.57888,5.20075 5.91607,2.27508 11.78381,4.69506 17.32786,7.79106 5.87777,3.15102 11.75811,6.33812 17.02855,10.46482 5.32316,4.13612 10.37907,8.58495 15.33773,13.1507 4.94017,4.46782 9.83642,8.98819 14.51341,13.73313 4.62256,4.67487 9.10833,9.48438 13.18965,14.64572 3.89066,5.13184 7.86191,10.21671 11.23036,15.71768 3.10909,5.00324 5.90441,10.19679 7.7498,15.8154 1.56443,4.61879 2.97056,9.28486 4.12492,14.02514 1.03076,4.3529 2.05208,8.72322 2.73195,13.14503 0.40665,3.97775 0.66973,7.98039 0.52585,11.98024 -0.0622,4.10567 -0.20586,8.21437 -0.73007,12.29152 -0.60449,4.35196 -1.21428,8.71288 -2.3467,12.96624 -1.24055,4.10851 -2.73638,8.13851 -5.10518,11.75194 -2.47225,3.81435 -5.47167,7.22374 -8.65654,10.46181 -3.38682,3.17884 -7.01902,6.05206 -10.90572,8.60437 -7.96031,5.28777 -16.38072,9.92476 -24.93321,14.18784 -4.40927,2.01327 -8.88635,3.87882 -13.22885,6.03606 -4.3061,2.02958 -8.61565,4.05255 -12.951,6.01904 -4.64858,2.04771 -9.38668,3.88284 -14.23184,5.41568 -5.34224,1.6256 -10.66146,3.33984 -16.0945,4.64529 -5.83704,1.41482 -11.71935,2.65551 -17.66842,3.5026 -5.96985,0.82648 -11.96038,1.49167 -17.94961,2.16065 -6.59859,0.66611 -13.2021,1.2739 -19.80751,1.86818 -6.6601,0.62577 -13.29324,1.49748 -19.95021,2.15522 -7.2611,0.72713 -14.54885,1.20267 -21.83517,1.58904 -7.98354,0.2878 -15.97008,0.21588 -23.93833,-0.4195 -7.7981,-0.59367 -15.59614,-1.24593 -23.33364,-2.41265 -7.87121,-1.27687 -15.70693,-2.75031 -23.51487,-4.37108 -7.68946,-1.60025 -15.32162,-3.43437 -22.85267,-5.67471 -6.56131,-2.01802 -13.10842,-4.09708 -19.54017,-6.50164 -6.22447,-2.26961 -12.41735,-4.65326 -18.33296,-7.65599 -5.16639,-2.55255 -10.22457,-5.30535 -14.98741,-8.56312 -4.19823,-2.8581 -8.39348,-5.7321 -12.35439,-8.91642 -3.5411,-2.91483 -7.02487,-5.92474 -10.1903,-9.24913 -3.17834,-3.4776 -5.96487,-7.25264 -8.10961,-11.46649 -2.32466,-4.62449 -4.33615,-9.39765 -5.95785,-14.31628 -1.73506,-5.53864 -3.3412,-11.11259 -4.25395,-16.85754 -1.03365,-6.25297 -1.69698,-12.55445 -1.43521,-18.90471 0.33965,-7.26494 0.8926,-14.52992 2.30582,-21.67781 1.39786,-7.55983 3.09419,-15.07733 5.43894,-22.40543 2.1403,-6.55978 4.41801,-13.06606 7.31397,-19.3396 2.56502,-5.73061 5.3882,-11.33814 8.89511,-16.56302 3.52705,-5.14051 7.30216,-10.14302 11.92622,-14.36135 4.79906,-4.33981 9.73312,-8.53953 14.97879,-12.33521 5.31516,-3.71792 10.70596,-7.33479 16.29805,-10.62666 9.13664,-5.60543 18.38537,-11.05071 27.86287,-16.06013 5.1978,-2.6654 10.50149,-5.16526 16.15042,-6.73284 5.23787,-1.46692 10.54155,-2.76858 15.97073,-3.28274 4.43449,-0.27748 8.88867,-0.21135 13.30274,0.3421 2.75872,0.47191 5.42147,1.25169 8.09596,2.06691 0,0 -12.75604,8.65484 -12.75604,8.65484 z"
       inkscape:connector-curvature="0" />
  </g>
</svg>
