<?xml version="1.0" encoding="UTF-8" standalone="no"?>
<!-- Created with Inkscape (http://www.inkscape.org/) -->

<svg
   xmlns:dc="http://purl.org/dc/elements/1.1/"
   xmlns:cc="http://creativecommons.org/ns#"
   xmlns:rdf="http://www.w3.org/1999/02/22-rdf-syntax-ns#"
   xmlns:svg="http://www.w3.org/2000/svg"
   xmlns="http://www.w3.org/2000/svg"
   xmlns:sodipodi="http://sodipodi.sourceforge.net/DTD/sodipodi-0.dtd"
   xmlns:inkscape="http://www.inkscape.org/namespaces/inkscape"
   width="835.18719"
   height="508.61298"
   viewBox="0 0 835.18721 508.61298"
   id="svg2"
   version="1.1"
   inkscape:version="0.91 r13725"
   sodipodi:docname="kast.svg">
  <defs
     id="defs4" />
  <sodipodi:namedview
     id="base"
     pagecolor="#ffffff"
     bordercolor="#666666"
     borderopacity="1.0"
     inkscape:pageopacity="0.0"
     inkscape:pageshadow="2"
     inkscape:zoom="0.85052059"
     inkscape:cx="359.99023"
     inkscape:cy="270.36007"
     inkscape:document-units="px"
     inkscape:current-layer="layer2"
     showgrid="false"
     showguides="false"
     inkscape:guide-bbox="true"
     units="px"
     inkscape:window-width="1280"
     inkscape:window-height="774"
     inkscape:window-x="0"
     inkscape:window-y="0"
     inkscape:window-maximized="1"
     fit-margin-top="0"
     fit-margin-left="0"
     fit-margin-right="0"
     fit-margin-bottom="0" />
  <metadata
     id="metadata7">
    <rdf:RDF>
      <cc:Work
         rdf:about="">
        <dc:format>image/svg+xml</dc:format>
        <dc:type
           rdf:resource="http://purl.org/dc/dcmitype/StillImage" />
        <dc:title></dc:title>
      </cc:Work>
    </rdf:RDF>
  </metadata>
  <g
     inkscape:groupmode="layer"
     id="layer2"
     inkscape:label="kast"
     transform="translate(-51.924433,-78.052617)">
    <path
       style="fill:#ffe7b2;fill-opacity:1;stroke:#000000;stroke-width:3;stroke-linecap:round;stroke-linejoin:round;stroke-miterlimit:4;stroke-dasharray:none;stroke-opacity:1"
       d="m 53.424433,278.00154 0,295.16992 50.064457,11.99414 429.71874,0 0,-295.16992 -50.06445,-11.99414 z"
       id="rect4172"
       inkscape:connector-curvature="0"
       sodipodi:nodetypes="ccccccc" />
    <path
       style="fill:none;fill-opacity:1;stroke:#000000;stroke-width:3;stroke-linecap:round;stroke-linejoin:round;stroke-miterlimit:4;stroke-dasharray:none;stroke-opacity:1"
       d="m 55.51123,278.26231 50.06445,13.90632 0,291.78068"
       id="rect4172-8"
       inkscape:connector-curvature="0"
       sodipodi:nodetypes="ccc" />
    <path
       style="fill:none;fill-rule:evenodd;stroke:#000000;stroke-width:3;stroke-linecap:butt;stroke-linejoin:miter;stroke-miterlimit:4;stroke-dasharray:none;stroke-opacity:1"
       d="m 105.40149,291.73394 427.92446,-1.84226"
       id="path4205"
       inkscape:connector-curvature="0"
       sodipodi:nodetypes="cc" />
    <path
       style="fill:#007ad7;fill-opacity:1;stroke:none;stroke-width:3;stroke-linecap:round;stroke-linejoin:round;stroke-miterlimit:4;stroke-dasharray:none;stroke-opacity:1"
       id="path4207"
       d="m 683.41153,156.82353 c -1.71047,-0.86677 -4.37528,-4.05952 -6.24814,-2.79623 -1.89441,12.79079 -0.15829,-0.60802 22.82602,-16.67164 0.46374,-0.32412 -0.24677,1.3453 -0.26577,2.032 -0.0342,1.23285 0.024,2.46944 0.10718,3.69829 0.27477,4.05734 0.76026,8.08561 1.13244,12.12967 2.25551,21.65227 4.24836,43.34402 5.86457,65.09367 1.22727,18.02166 1.92462,36.09323 2.74576,54.15119 0.82838,15.70822 7.36582,1.57258 -23.01498,20.29169 -0.58172,0.35844 0.96407,-1.12353 1.36963,-1.77575 0.61389,-0.98725 1.11812,-2.08271 1.67718,-3.12409 5.79615,-12.49143 14.21759,-21.5992 23.37662,-29.63607 16.25556,-13.29962 32.3598,-26.30317 51.21335,-31.51863 7.39696,-2.04623 9.13875,-1.84877 16.68581,-2.51676 15.01135,-0.24505 29.28265,4.93673 42.24504,14.75312 2.65188,2.00826 5.14599,4.35289 7.71898,6.52932 11.52259,11.36053 21.48155,25.64967 27.7061,42.82025 1.09246,3.01354 1.87613,6.20213 2.8142,9.30319 3.62457,14.81885 4.25727,30.38541 0.40672,45.26876 -0.78294,3.02627 -1.88574,5.89479 -2.8286,8.84219 -8.82196,22.7912 -22.09665,36.24593 -38.0342,50.01375 -16.97997,13.77553 -33.89894,26.92497 -53.08379,34.32062 -8.15682,3.14443 -17.42285,5.65239 -25.86265,6.9293 -4.50132,0.68103 -9.04088,0.82288 -13.56133,1.23432 -16.64554,-0.18049 -33.88905,-2.34115 -48.80978,-12.8917 -8.36728,-5.91656 -9.11413,-8.19915 -15.48763,-16.82097 -1.51822,-3.43489 -3.03643,-6.86978 -4.55465,-10.30466 0,0 22.03949,-16.5846 22.03949,-16.5846 l 0,0 c 1.35822,3.23906 2.71644,6.47813 4.07466,9.71719 5.85978,8.12436 6.70697,10.53267 14.50722,16.08227 14.52856,10.33654 31.40198,12.21917 47.608,12.1074 4.48496,-0.49863 8.99268,-0.72363 13.45487,-1.49588 12.84655,-2.22324 25.44517,-6.72261 37.41861,-13.17413 3.5881,-1.93334 12.25151,-10.94488 10.57304,-6.37242 -1.94821,5.30721 -7.71848,6.07286 -11.57771,9.1093 15.65418,-13.14197 28.77458,-25.82772 37.7626,-47.75902 0.96216,-2.77966 2.07549,-5.4782 2.88649,-8.33898 4.01335,-14.1568 3.85958,-29.15677 0.52413,-43.49042 -0.84939,-2.997 -1.54204,-6.07803 -2.54816,-8.99102 -5.81447,-16.83433 -15.49512,-30.68749 -26.74988,-41.60704 -2.53201,-2.07802 -4.98551,-4.32905 -7.59603,-6.23402 -12.80045,-9.34086 -26.9223,-13.89376 -41.58564,-13.13424 -11.84887,1.46277 -20.81537,3.68383 -31.88402,9.73123 -2.35133,1.28467 -9.03571,6.09066 -6.93659,4.20214 4.99707,-4.49576 10.45504,-8.04717 15.68256,-12.07074 -8.89376,7.30686 -17.42419,15.62782 -22.75221,27.76589 -0.4832,1.00981 -1.01462,1.98287 -1.4496,3.02941 -0.33632,0.80917 -0.24966,2.061 -0.85871,2.52421 -8.25052,6.27458 -16.65556,12.26087 -25.35102,17.40851 -0.51557,0.3052 -0.76948,-1.13742 -0.9514,-1.83776 -0.33946,-1.30675 -0.0755,-5.53027 -0.0483,-6.38917 0.21731,-18.28218 -0.18769,-36.57676 -1.36581,-54.80029 -1.55059,-21.53202 -3.73769,-42.97303 -6.84129,-64.22379 -2.12174,-15.52975 -10.87311,-48.6017 22.04422,-38.47172 2.36706,1.16059 4.59593,2.6652 6.87279,4.09234 0,0 -23.09028,19.85052 -23.09028,19.85052 z"
       inkscape:connector-curvature="0" />
    <path
       style="fill:#007ad7;fill-opacity:1;stroke:none;stroke-width:3;stroke-linecap:round;stroke-linejoin:round;stroke-miterlimit:4;stroke-dasharray:none;stroke-opacity:1"
       id="path4209"
       d="m 693.41067,125.11613 c 4.58933,4.53726 19.61333,-0.46992 24.49715,-1.62273 26.53555,-7.20202 52.90369,-15.40036 79.39974,-22.84192 25.76193,-7.059533 51.67176,-13.126573 77.54926,-19.403193 8.93749,-2.19619 4.85666,-1.10445 12.25481,-3.19567 0,0 -21.19975,20.9025 -21.19975,20.9025 l 0,0 c -6.75434,1.293953 -2.99215,0.5656 -11.28523,2.196603 -25.41642,5.2776 -50.78329,10.99467 -75.9586,18.00265 -27.09919,7.76947 -54.03788,16.4325 -81.09974,24.41514 -6.68519,1.71487 -17.48368,5.64796 -24.32836,2.88938 -2.18592,-0.881 -2.44505,-1.60667 -3.84873,-3.47341 0,0 24.01945,-17.86935 24.01945,-17.86935 z"
       inkscape:connector-curvature="0" />
    <path
       style="fill:none;fill-rule:evenodd;stroke:#000000;stroke-width:3;stroke-linecap:butt;stroke-linejoin:miter;stroke-miterlimit:4;stroke-dasharray:none;stroke-opacity:1"
       d="m 483.24029,277.00843 0,13.09425"
       id="path4229"
       inkscape:connector-curvature="0" />
    <path
       style="fill:#8f6b39;fill-opacity:1;fill-rule:evenodd;stroke:none;stroke-width:1px;stroke-linecap:butt;stroke-linejoin:miter;stroke-opacity:1"
       d="m 61.106514,278.2555 44.374966,12.78249 424.524,-1.55885 -47.38872,-12.05502 z"
       id="path4231"
       inkscape:connector-curvature="0"
       sodipodi:nodetypes="ccccc" />
    <path
       style="fill:none;fill-rule:evenodd;stroke:#000000;stroke-width:3;stroke-linecap:butt;stroke-linejoin:miter;stroke-miterlimit:4;stroke-dasharray:none;stroke-opacity:1"
       d="m 483.24029,276.9045 -0.10392,13.82171"
       id="path4233"
       inkscape:connector-curvature="0"
       sodipodi:nodetypes="cc" />
    <path
       style="opacity:1;fill:#007ad7;fill-opacity:1;fill-rule:nonzero;stroke:none;stroke-width:5;stroke-linecap:square;stroke-linejoin:bevel;stroke-miterlimit:4;stroke-dasharray:40, 20;stroke-dashoffset:0;stroke-opacity:0.28959279"
       id="path4168"
       d="m 637.63431,191.82696 c -2.70444,-1.17628 -5.59693,-1.8068 -8.42589,-2.60903 -3.8955,-1.08182 -7.80928,-2.1007 -11.70188,-3.19604 -5.56176,-1.65491 -11.18849,-3.07707 -16.84036,-4.39079 -7.22882,-1.77466 -14.56145,-3.10841 -21.89944,-4.34452 -6.68079,-1.24484 -13.34884,-2.51874 -20.11024,-3.23338 -6.94685,-0.53001 -13.93051,-0.81589 -20.89342,-0.50825 -6.36627,0.26253 -12.69179,0.98799 -18.94547,2.19666 -6.92596,1.29932 -13.8282,2.75069 -20.70693,4.28458 -7.35205,1.35225 -14.6125,3.12316 -21.75735,5.31468 -6.20713,1.95303 -12.45153,3.73744 -18.53521,6.05804 -5.31447,2.10427 -10.54785,4.39401 -15.72539,6.81354 -5.33259,2.51249 -15.98312,8.4415 7.49623,-4.6123 0.70987,-0.39466 -1.36945,0.87386 -2.04591,1.3234 -1.61204,1.07128 -2.30559,1.58284 -3.86712,2.69374 -3.58964,2.75818 -7.16174,5.556 -10.43969,8.68279 -2.33865,2.50694 -4.87757,4.80562 -7.33436,7.1921 -7.27582,7.15547 4.56734,-0.33985 -18.35833,10.17267 0,0 15.17988,-8.76347 15.17988,-8.76347 l 0,0 c -5.18547,2.64978 -10.39839,5.24651 -15.55642,7.94933 -0.10664,0.0559 0.25961,0.0782 0.36094,0.0131 0.86574,-0.55552 1.46249,-2.33679 2.41795,-2.84441 2.63693,-2.27818 5.14451,-4.72228 7.5674,-7.22946 3.24517,-3.23652 6.8132,-6.07052 10.38844,-8.93432 8.56168,-6.24806 17.72373,-11.69759 27.36509,-16.11582 5.18982,-2.37646 10.43096,-4.6414 15.76486,-6.67763 6.07708,-2.19081 12.29129,-3.93289 18.45542,-5.85741 7.17815,-2.07629 14.44607,-3.785 21.78656,-5.18791 6.93526,-1.52816 13.87555,-3.05218 20.86169,-4.3297 6.30122,-1.12218 12.66362,-1.80431 19.0659,-1.97554 7.00939,-0.16738 14.02963,0.12328 21.01559,0.7105 6.77164,0.74625 13.43835,2.10674 20.1322,3.353 7.35292,1.3475 14.71855,2.65993 21.9963,4.37642 5.75544,1.27452 11.47377,2.69812 17.15878,4.25797 3.93591,1.0343 7.87447,2.05786 11.8019,3.12408 3.00346,0.77266 6.02633,1.54279 8.90858,2.70002 0,0 -14.5803,9.59332 -14.5803,9.59332 z"
       inkscape:connector-curvature="0" />
    <path
       style="opacity:1;fill:#007ad7;fill-opacity:1;fill-rule:nonzero;stroke:none;stroke-width:5;stroke-linecap:square;stroke-linejoin:bevel;stroke-miterlimit:4;stroke-dasharray:40, 20;stroke-dashoffset:0;stroke-opacity:0.28959279"
       id="path4170"
       d="m 433.26646,173.81041 c -1.89001,1.80071 -3.73529,3.63951 -5.45055,5.60801 -2.75519,3.29746 -5.4255,6.65666 -8.28574,9.86548 -4.16091,4.66016 -8.65103,8.99544 -13.3252,13.13432 -4.81266,3.86992 -9.05301,8.34068 -13.15705,12.93426 -3.14175,3.43193 -5.78059,7.23382 -8.23353,11.17199 -1.57065,2.86852 -3.16136,5.72555 -4.78526,8.56451 -0.92478,1.61573 -2.05394,3.09262 -3.23089,4.52922 -0.0703,0.0124 -0.14272,0.0583 -0.21094,0.0373 -2.02695,-0.62608 0.44431,-0.98192 0.63677,-0.98615 0.27961,0.004 0.56104,0.0448 0.83881,0.0126 0.77905,-0.0904 1.43714,-0.41054 2.18752,-0.62166 1.86642,-0.52513 3.76195,-0.94438 5.6612,-1.32849 7.22016,-1.36926 14.35004,-3.14798 21.47873,-4.92092 9.34892,-2.42229 18.77973,-4.51073 28.11512,-6.98374 10.01606,-2.84442 20.12338,-5.34514 30.19233,-7.99085 8.49769,-2.46834 17.15895,-4.26047 25.77493,-6.24569 2.83601,-0.6093 5.66846,-1.23031 8.51988,-1.76371 1.37041,-0.25636 2.749,-0.2964 3.95057,-1.01568 -4.86231,2.75059 -9.72461,5.50117 -14.58692,8.25176 0.14011,0.24703 0.60566,0.62933 0.43535,0.95019 0,0 14.80298,-9.44348 14.80298,-9.44348 l 0,0 c 5.47024,5.87023 -11.89317,10.63009 -14.37223,10.936 -4.0067,0.50745 -7.97741,1.25405 -11.92473,2.10491 -8.52813,1.82709 -17.04206,3.7052 -25.44319,6.06478 -10.07002,2.58153 -20.14133,5.15677 -30.15082,7.96698 -9.41387,2.47194 -18.90503,4.63843 -28.31852,7.11438 -7.29864,1.84358 -14.61241,3.62072 -21.96373,5.2437 -3.07874,0.7727 -6.14929,1.96479 -9.36044,1.88427 -1.37048,-0.11271 -2.63277,-0.91606 -2.36943,-2.49183 1.30526,-1.33814 2.53412,-2.75164 3.5676,-4.31381 1.76836,-2.81942 3.41422,-5.71756 4.96614,-8.66115 2.45349,-4.0831 5.15019,-7.99416 8.33481,-11.55075 4.16018,-4.62614 8.29918,-9.29839 13.19731,-13.17529 4.67451,-3.9971 9.10019,-8.26327 13.19789,-12.8546 2.81964,-3.1421 5.46887,-6.41221 8.07515,-9.72932 1.61748,-1.95447 3.26453,-3.86017 5.10267,-5.61477 0,0 16.13341,-6.68267 16.13341,-6.68267 z"
       inkscape:connector-curvature="0" />
  </g>
  <g
     inkscape:label="tekst"
     inkscape:groupmode="layer"
     id="layer1"
     transform="translate(-51.924433,-530.41478)">
    <path
       style="fill:#007ad7;fill-opacity:1;stroke:none;stroke-width:3;stroke-linecap:round;stroke-linejoin:round;stroke-miterlimit:4;stroke-dasharray:none;stroke-opacity:1"
       id="path4138"
       d="m 151.18123,834.85377 c 1.47173,4.07703 1.82224,8.4783 2.38664,12.75033 0.81822,7.50791 1.37842,15.03962 1.90139,22.57279 0.35963,5.98964 0.41737,11.99601 0.21939,17.99227 -0.15392,2.53381 -0.27024,5.08493 -0.71257,7.58937 -15.48494,3.72199 -16.52817,7.82642 -15.87892,-3.60096 0.43792,-6.80482 1.46043,-13.56051 2.92058,-20.21652 1.88886,-8.25708 4.83735,-16.17575 8.5673,-23.76232 2.79057,-5.51075 6.05375,-10.73602 10.63137,-14.9213 5.94907,-4.09419 13.81019,-7.61264 21.03353,-6.19233 1.42727,0.28065 2.13305,0.73219 3.43374,1.36526 4.31308,2.85209 6.93029,7.35058 9.42691,11.74047 3.12628,5.74425 4.92689,12.0571 6.34548,18.40473 1.48346,6.26507 1.45212,12.59403 0.75135,18.94562 -0.59361,4.56653 -1.64842,9.05168 -2.75835,13.51479 -0.22168,1.32938 -0.76264,2.61862 -0.9092,3.96199 0,0 -15.26106,3.11702 -15.26106,3.11702 l 0,0 c 0.63851,-1.24541 0.83402,-2.69672 1.33894,-3.99245 1.26528,-4.40536 2.44967,-8.84474 3.14702,-13.38125 0.81014,-6.18867 0.86579,-12.35428 -0.57814,-18.47466 -1.35908,-6.21565 -3.10013,-12.39227 -6.30201,-17.94383 -2.44161,-4.11759 -5.04044,-8.42595 -9.4184,-10.72001 -1.32806,-0.45807 -1.84673,-0.7635 -3.25858,-0.77182 -0.52634,-0.003 -2.0731,0.33281 -1.56834,0.1836 23.66897,-6.99666 14.09538,-4.58576 9.44636,-1.91218 -4.95841,3.78997 -8.33837,8.96732 -11.28056,14.41677 -3.80079,7.43653 -6.73923,15.24364 -8.60206,23.40169 -1.42915,6.52193 -2.30513,13.15462 -2.44095,19.83783 -0.0218,1.56902 -0.089,3.21791 0.21151,4.77306 1.13628,5.8794 18.52316,-4.11622 -14.25018,5.08618 0.94367,-0.64061 1.13784,-5.94476 1.37453,-7.09263 0.43366,-5.95992 0.42211,-11.94367 0.20703,-17.91354 -0.46222,-7.49157 -1.00404,-14.97915 -2.05845,-22.41526 -0.63761,-4.02877 -1.04723,-8.34609 -2.94313,-12.01214 0,0 14.87783,-4.33057 14.87783,-4.33057 z"
       inkscape:connector-curvature="0" />
    <path
       style="fill:#007ad7;fill-opacity:1;stroke:none;stroke-width:3;stroke-linecap:round;stroke-linejoin:round;stroke-miterlimit:4;stroke-dasharray:none;stroke-opacity:1"
       id="path4140"
       d="m 228.37075,828.77547 c -1.79006,3.18337 -2.12506,6.87461 -2.35542,10.44709 -0.25238,6.21784 0.45307,12.40895 1.34714,18.54895 0.82992,5.97177 2.26425,11.81966 4.11545,17.55002 1.36045,4.58387 3.51306,8.88146 6.66603,12.48237 1.67665,1.52204 4.00874,3.68896 6.53961,3.35498 0.37944,-0.0501 0.7172,-0.26751 1.0758,-0.40126 -24.02122,6.09503 -14.99308,5.71995 -11.20238,1.51214 1.32366,-1.46929 2.18427,-3.15775 3.06023,-4.91091 2.06373,-5.02069 3.92243,-10.13029 5.67666,-15.26789 1.8496,-5.56075 3.42179,-11.20774 4.99516,-16.85114 1.53159,-4.89476 2.21978,-9.93941 2.55089,-15.03613 0.19544,-3.63258 -0.3079,-7.21966 -0.84257,-10.79666 -0.21958,-0.86981 -0.21329,-0.96678 -0.51491,-1.74972 -0.22073,-0.57293 -0.37571,-0.85498 -0.4375,-0.64456 -0.0683,0.23105 -0.22345,0.77436 0.0118,0.72263 4.93756,-1.0855 9.76295,-2.62984 14.64442,-3.94476 -1.13959,2.00263 -0.43342,5.09351 -0.25643,7.28373 0.56579,5.10162 2.33234,9.91716 4.20726,14.65699 2.39511,6.1646 5.15918,12.17097 7.9038,18.18432 2.60037,5.82813 5.74778,11.38596 8.42177,17.17721 0.80655,1.97795 1.59798,3.95729 2.19064,6.0111 0.22933,0.79474 0.3388,1.78195 0.8364,2.47574 0,0 -14.94828,4.15676 -14.94828,4.15676 l 0,0 c -0.77417,-2.8815 -1.01536,-5.92045 -2.40932,-8.63126 -2.47462,-5.85895 -5.6559,-11.38567 -8.19243,-17.22005 -2.78434,-6.03006 -5.60603,-12.04423 -8.08539,-18.20906 -1.97055,-4.85676 -3.82911,-9.77035 -4.56382,-14.99295 -0.35257,-2.78396 -0.76547,-5.57066 -0.44255,-8.37858 12.48481,-3.72113 14.8094,-9.07544 16.45918,-0.58501 0.37168,3.70616 0.81379,7.41914 0.60275,11.1529 -0.3714,5.19978 -0.97441,10.37392 -2.60192,15.35841 -1.58449,5.6721 -3.20711,11.33475 -5.02774,16.93643 -1.70678,5.16296 -3.55532,10.27754 -5.40096,15.39096 -4.75331,10.68553 -5.99178,8.17103 -20.72546,12.19865 -3.2724,-0.19502 -5.77962,-2.07418 -7.89345,-4.49373 -3.09155,-3.87345 -5.28097,-8.31971 -6.63445,-13.09309 -1.83443,-5.8191 -3.22774,-11.76697 -4.04812,-17.81819 -0.90629,-6.21488 -1.6421,-12.47851 -1.65353,-18.76758 0.11103,-3.70978 0.38243,-7.46635 1.73037,-10.96458 0,0 15.20124,-2.84427 15.20124,-2.84427 z"
       inkscape:connector-curvature="0" />
    <path
       style="fill:#007ad7;fill-opacity:1;stroke:none;stroke-width:3;stroke-linecap:round;stroke-linejoin:round;stroke-miterlimit:4;stroke-dasharray:none;stroke-opacity:1"
       id="path4142"
       d="m 286.0729,820.22825 c 0.69013,4.76935 2.02789,9.38191 3.61287,13.92106 2.31739,6.74921 5.14863,13.29774 7.82734,19.90682 2.07387,5.04591 3.92053,10.17989 5.58496,15.37472 1.03711,1.94732 0.8467,4.44203 1.82403,6.3882 -5.00459,1.05714 -9.96018,2.38099 -15.01376,3.17143 -0.27372,0.0428 0.0452,-0.55294 0.044,-0.83 -0.002,-0.40483 -0.0307,-0.80912 -0.0528,-1.21335 -0.10731,-1.96638 -0.30097,-3.9178 -0.39155,-5.88604 -0.3305,-5.5242 -0.40286,-11.04853 -0.16572,-16.57676 0.006,-5.95494 0.84596,-11.81096 2.35452,-17.55739 1.26256,-4.58141 3.24679,-8.8091 5.95112,-12.69838 4.45767,-5.49924 11.32851,-4.89419 18.71487,-6.13407 0.48877,-0.082 2.03521,1.71679 2.17767,1.86696 2.77383,3.80189 3.48026,8.58351 4.05121,13.1398 0.44507,5.02335 0.44288,10.0777 0.14085,15.10861 -0.0748,0.47059 -0.30206,5.14995 0.0141,5.31271 0.0968,0.0498 0.0233,-0.21645 0.035,-0.32469 -4.98942,1.1323 -9.961,2.34632 -14.96826,3.3969 -0.14886,0.0312 0.24136,-0.19455 0.32149,-0.32384 0.18472,-0.29803 0.31027,-0.62891 0.46426,-0.94392 0.75346,-1.54128 1.41641,-3.11928 2.11576,-4.68586 1.93673,-4.35401 4.03628,-8.63454 6.20651,-12.87633 1.69405,-3.30606 3.41832,-6.62251 5.63708,-9.61217 4.30486,-5.2947 13.49144,-9.10279 19.47433,-5.24006 3.25331,2.98346 5.31915,6.96668 7.39226,10.79903 3.09518,5.63727 4.52513,11.89877 5.64777,18.17116 0.65827,4.68893 1.11997,9.41149 0.92033,14.14795 -0.043,1.38851 -0.24875,2.76448 -0.33497,4.14915 0,0 -15.39343,2.40927 -15.39343,2.40927 l 0,0 c 0.092,0.0896 0.16174,0.32716 0.27598,0.26862 0.20495,-0.10503 0.59219,-3.19723 0.65172,-3.44844 0.45285,-4.63514 0.19893,-9.27862 -0.42324,-13.89119 -1.07285,-6.12581 -2.42002,-12.24514 -5.60632,-17.67314 -2.00729,-3.51593 -4.04661,-7.50712 -7.57634,-9.71439 -0.28953,-0.0634 -0.57243,-0.17951 -0.86863,-0.19009 -0.23899,-0.009 -0.93524,0.19798 -0.70482,0.13396 4.64081,-1.28931 9.29217,-2.54031 13.93825,-3.81046 -0.75398,0.16822 -0.90509,0.1168 -1.54733,0.62929 -0.28856,0.23026 -0.52285,0.5213 -0.78426,0.78195 -2.48697,2.78055 -4.25055,6.08826 -6.00031,9.36205 -2.19402,4.16576 -4.25008,8.41719 -6.07694,12.75622 -0.77777,1.77753 -1.64625,3.65492 -2.22139,5.5097 -1.92529,6.20872 18.30477,-3.74513 -15.41837,4.56887 -0.6727,-1.99167 3e-5,-4.30119 0.13396,-6.32635 0.51094,-4.93212 0.57957,-9.91062 0.1024,-14.85006 -0.51814,-4.17999 -1.20674,-8.72848 -4.09438,-11.99163 -0.33625,-0.23443 -0.63922,-0.5259 -1.00875,-0.70328 -0.28625,-0.13744 -1.22865,-0.13041 -0.9256,-0.22524 4.51317,-1.41227 9.13215,-2.46253 13.67814,-3.76533 0.36195,-0.10373 -0.76128,0.0432 -1.11735,0.16566 -0.89998,0.30941 -1.402,0.91113 -2.08945,1.53467 -2.93341,3.63743 -5.0252,7.70076 -6.3613,12.19513 -1.55358,5.64238 -2.47531,11.37535 -2.47134,17.249 -0.2287,5.4668 -0.0858,10.92295 0.35473,16.37753 0.8625,12.00415 4.70517,7.00362 -14.19457,12.29419 -0.41557,-2.18032 -0.61169,-4.41124 -1.38154,-6.51651 -1.42078,-5.21306 -3.14126,-10.33367 -5.14069,-15.35358 -2.62246,-6.65309 -5.45967,-13.21723 -7.92182,-19.93324 -1.68921,-4.54628 -3.04484,-9.16682 -4.31762,-13.84436 0,0 14.92523,-3.95047 14.92523,-3.95047 z"
       inkscape:connector-curvature="0" />
    <path
       style="fill:#007ad7;fill-opacity:1;stroke:none;stroke-width:3;stroke-linecap:round;stroke-linejoin:round;stroke-miterlimit:4;stroke-dasharray:none;stroke-opacity:1"
       id="path4144"
       d="m 347.67786,768.72535 c 1.68511,4.3489 3.01179,8.8185 4.36669,13.27725 3.32925,9.52339 6.56244,19.08081 9.60123,28.70089 3.63714,10.57192 5.91948,21.52127 8.38807,32.40343 1.64704,7.38508 3.09721,14.82402 5.19306,22.0991 0.56929,1.54481 0.94679,3.18773 1.64487,4.68693 0.0895,0.1923 0.19067,0.38598 0.33623,0.54029 0.0351,0.0372 0.20149,-0.0348 0.1517,-0.0231 -4.98559,1.17181 -9.97305,2.33565 -14.95958,3.50348 0.35851,-3.14255 -0.35202,-6.38715 -0.61314,-9.53589 -0.48752,-5.19283 -0.023,-10.36377 1.09047,-15.44038 1.25188,-5.07428 4.43347,-8.91695 8.37543,-12.166 7.32339,-4.99571 16.39375,-7.15784 25.07201,-8.33576 3.28504,-0.32835 4.9172,0.95388 6.8437,3.40861 1.76487,3.14382 2.38183,6.61572 2.55933,10.16916 0.0834,5.26387 -1.62038,10.08426 -3.97631,14.70318 -2.43376,4.26321 -5.96829,7.24109 -10.4127,9.19258 -5.36535,1.27131 -15.80267,6.84433 -22.58162,2.97811 -1.58307,-0.90286 -2.07491,-1.69606 -3.24962,-3.04152 -1.43179,-2.77436 -0.88374,-1.32904 -1.6509,-4.33341 0,0 14.55226,-3.80858 14.55226,-3.80858 l 0,0 c 0.62207,2.52515 0.14265,1.32359 1.44756,3.60094 1.18374,1.17249 1.46578,1.6745 3.02475,2.34541 5.38311,2.31664 17.53227,-2.67654 -6.47708,3.92165 4.50813,-1.4804 8.06302,-4.14115 10.68566,-8.14657 2.38,-4.33095 4.13147,-8.85005 3.99586,-13.88357 -0.16736,-3.21114 -0.78316,-6.38745 -2.50523,-9.16082 -1.88236,-2.0498 -3.47317,-2.42922 -6.22965,-1.94657 -5.55185,1.17044 -4.05694,0.88287 11.30139,-3.10806 0.61642,-0.16018 -1.21841,0.37189 -1.82284,0.57262 -2.04244,0.67827 -3.93215,1.59587 -5.73994,2.77474 -4.12265,3.03076 -7.10053,6.14939 -8.62122,11.17608 -1.20253,4.89441 -1.65553,9.93103 -1.10895,14.95898 0.31747,3.36154 0.99879,6.66928 1.28345,10.03432 -16.90074,4.61818 -14.21496,8.43251 -16.80217,-1.85466 -1.7648,-7.38927 -3.02432,-14.88959 -4.55267,-22.32945 -2.28515,-10.87956 -4.52042,-21.79609 -8.16598,-32.32391 -3.11544,-9.61019 -6.52372,-19.12473 -10.22998,-28.52376 -1.52899,-4.38758 -2.96229,-8.84642 -5.12618,-12.97389 0,0 14.912,-4.11191 14.912,-4.11191 z"
       inkscape:connector-curvature="0" />
    <path
       style="fill:#007ad7;fill-opacity:1;stroke:none;stroke-width:3;stroke-linecap:round;stroke-linejoin:round;stroke-miterlimit:4;stroke-dasharray:none;stroke-opacity:1"
       id="path4146"
       d="m 413.39688,848.0385 c 3.34565,-2.59694 6.5164,-5.42314 9.5937,-8.33148 2.9706,-3.06479 6.07855,-6.35651 6.82142,-10.69779 -0.15769,-3.69125 -2.37791,-3.54455 -5.3216,-2.73437 23.08653,-6.03524 13.41616,-4.5352 9.01537,-0.87174 -1.99062,1.65711 -3.09463,3.49508 -4.2063,5.78948 -2.09028,6.00551 -0.92352,9.99622 2.14643,15.32952 3.73725,5.42535 9.26565,8.72531 15.12044,11.42351 2.03394,0.87268 4.14086,1.72622 6.39091,1.76603 0.51303,0.009 2.02928,-0.26646 1.53347,-0.13438 -15.34271,4.08723 -17.33238,5.06181 -12.06249,2.7151 0,0 15.11123,-1.96967 15.11123,-1.96967 l 0,0 c -8.43778,6.74581 -16.69461,6.48627 -24.92146,2.60963 -5.94316,-3.0176 -11.5447,-6.66518 -15.3597,-12.2811 -3.26382,-5.76755 -4.57483,-10.10241 -2.62373,-16.65155 0.33732,-0.80734 0.61431,-1.64262 1.01193,-2.42202 4.47524,-8.77232 13.68103,-8.97461 22.78425,-11.25982 4.30588,-0.20961 5.88303,1.08774 6.1887,5.4316 -0.0805,0.62414 -0.082,1.26369 -0.2416,1.87245 -1.01952,3.88982 -4.1222,6.92861 -6.66781,9.84819 -2.93904,2.87025 -6.01822,5.57666 -8.99676,8.40443 0,0 -15.31641,2.16401 -15.31641,2.16401 z"
       inkscape:connector-curvature="0" />
    <path
       style="fill:#007ad7;fill-opacity:1;stroke:none;stroke-width:3;stroke-linecap:round;stroke-linejoin:round;stroke-miterlimit:4;stroke-dasharray:none;stroke-opacity:1"
       id="path4148"
       d="m 470.7187,812.89652 c 1.70959,3.45788 3.86889,6.67135 5.8469,9.97889 3.16986,5.40853 6.18482,10.92235 9.02403,16.51276 0.93726,2.8823 2.92084,5.34785 3.94505,8.17689 0.0276,0.16121 0.24116,0.44252 0.0829,0.48361 -16.00618,4.15565 -14.80576,7.42357 -17.78168,-2.93788 -1.63311,-6.21326 -2.18148,-12.64299 -1.57025,-19.02826 1.41713,-6.50332 4.03133,-8.95232 9.96439,-11.51473 9.85765,-2.75139 17.96311,-6.40912 27.71406,-3.79802 1.18677,0.40021 1.9673,1.24362 2.78635,2.13071 0,0 -14.66394,4.67891 -14.66394,4.67891 l 0,0 c -0.69211,-0.65476 -1.38408,-1.16367 -2.33746,-1.39656 -1.78867,-0.41621 -3.47737,-0.63375 -5.32491,-0.59986 -5.24678,0.0962 -15.44519,2.98108 6.62793,-2.67742 -5.58607,1.9918 -8.70812,3.9022 -10.33382,9.95049 -0.83192,6.1781 -0.30277,12.42372 1.63563,18.37049 0.67161,1.9631 0.61275,1.98208 1.44698,3.75139 0.1921,0.40743 0.39068,0.81296 0.61947,1.20098 0.17013,0.28849 0.8866,0.70208 0.57472,0.82418 -15.62898,6.11884 -17.4975,8.70343 -14.42389,4.52295 -0.11382,-0.80261 -0.54729,-1.59269 -0.85272,-2.33333 -0.78965,-1.9148 -1.5943,-3.82335 -2.38135,-5.73925 -2.72075,-5.59881 -5.65913,-11.10878 -8.97729,-16.37789 -2.14134,-3.30024 -4.36315,-6.54547 -6.49887,-9.84849 0,0 14.87782,-4.33056 14.87782,-4.33056 z"
       inkscape:connector-curvature="0" />
    <path
       style="opacity:1;fill:#000000;fill-opacity:1;fill-rule:nonzero;stroke:none;stroke-width:5;stroke-linecap:square;stroke-linejoin:bevel;stroke-miterlimit:4;stroke-dasharray:40, 20;stroke-dashoffset:0;stroke-opacity:0.28959279"
       id="path4169"
       d="m 132.39543,938.5879 c -0.2995,3.86656 0.10439,7.7474 0.58269,11.58292 0.46846,4.62294 1.82596,9.07018 3.21418,13.4819 1.08637,3.50253 2.71918,6.79364 4.0944,10.18533 1.01045,2.12392 1.81371,4.32629 2.36732,6.61021 0.35347,0.87637 0.9594,1.43169 1.36612,2.27843 -15.26085,7.76891 -15.57076,12.82697 -17.04978,2.04777 -0.27779,-4.28852 -0.82503,-8.552 -1.14417,-12.83721 -0.531,-5.04574 -0.12772,-10.09619 0.18549,-15.13845 0.34581,-4.18461 1.12825,-8.32541 2.0877,-12.40924 2.59258,-9.96274 1.83464,-5.4239 17.01953,-14.40594 2.00897,0.59412 3.82449,1.94526 5.50731,3.18194 2.59762,1.91233 4.78879,4.16751 6.67744,6.76607 2.05313,3.08742 3.00807,6.58015 3.92051,10.11741 0.73806,2.88817 1.75827,5.68066 2.34705,8.60737 0.24879,1.53802 0.43961,3.08448 0.61899,4.63185 -0.10354,-0.22191 0.104,0.4595 0.0448,0.35568 -0.2923,-0.51288 -0.2944,-1.81111 -0.83057,-1.56413 -29.20532,13.45279 -16.35566,13.42247 -14.16903,7.73255 0.62126,-2.61441 1.15634,-5.24725 1.76598,-7.86431 0.86228,-3.43367 2.15546,-6.75487 3.82459,-9.87384 1.69975,-2.94567 4.01166,-5.45127 6.33835,-7.90475 5.56168,-5.34489 12.51366,-9.98794 19.80769,-12.22581 1.80073,0.46707 2.52835,1.97158 3.37191,3.48021 1.23628,2.75173 1.86919,5.69881 2.60169,8.60788 0.86638,3.54078 1.31656,7.15885 2.1889,10.69822 0.7405,3.18234 1.6065,6.31396 2.70165,9.39247 0.95773,2.76399 1.79761,5.55562 2.32723,8.43373 0.53405,2.32709 1.00457,4.66682 1.45033,7.01214 0.0373,0.83818 0.79473,2.0638 -0.4078,0.0313 0,0 -14.17648,10.48137 -14.17648,10.48137 l 0,0 c -0.63006,-0.99917 -0.78994,-1.2774 -0.79702,-2.38804 -0.25504,-2.38146 -0.69022,-4.73583 -1.30092,-7.05291 -0.42771,-2.81445 -1.22395,-5.51261 -2.15441,-8.19962 -1.06527,-3.14586 -1.98589,-6.32236 -2.69014,-9.57117 -0.90077,-3.52775 -1.35928,-7.13403 -2.20409,-10.6728 -0.73356,-2.72846 -1.34193,-5.50963 -2.56085,-8.07639 -0.45624,-0.72595 -1.07366,-2.32666 -2.08461,-1.3772 -5.39939,2.7777 1.04667,-0.52886 13.78164,-7.98973 0.26611,-0.1559 -0.57815,0.22237 -0.84489,0.3772 -1.1527,0.66909 -2.12051,1.64819 -3.17633,2.4458 -2.3208,2.37249 -4.6598,4.75971 -6.5185,7.5243 -1.80164,2.92391 -3.06544,6.10578 -4.03672,9.39487 -0.53102,2.5879 -1.13582,5.1649 -1.49691,7.78088 -0.93942,7.02447 -0.55647,3.60739 -15.28555,10.78331 -0.54147,0.26381 -0.76029,-0.93561 -1.10705,-1.42809 -0.0617,-0.0877 0.17517,-0.24258 0.0366,-0.31953 0.0624,-1.51641 -0.0549,-3.03681 -0.25423,-4.53954 -0.48613,-2.92207 -1.45375,-5.69974 -2.16441,-8.56801 -0.85967,-3.3277 -1.63468,-6.64817 -3.62663,-9.53305 -1.8107,-2.43411 -3.95678,-4.51018 -6.47337,-6.22474 -1.18454,-0.77285 -3.20587,-2.58856 -4.60442,-1.55691 4.78327,-2.86269 9.57003,-5.71956 14.34983,-8.58807 0.19955,-0.11976 -0.44014,0.18139 -0.60887,0.34168 -1.12498,1.06868 -0.87875,3.10422 -1.6579,4.36981 -1.17063,3.97873 -1.87614,8.08914 -2.40997,12.19774 -0.32069,4.96866 -0.84849,9.9473 -0.29865,14.92205 0.37163,4.21608 0.95356,8.40595 1.31992,12.62137 1.57031,10.04539 5.53656,3.72384 -14.06706,13.48481 1.35479,2.02717 -0.85001,-1.05958 -0.77814,-1.58524 -0.36172,-2.24878 -1.09701,-4.39276 -2.05092,-6.46049 -1.24176,-3.49368 -2.93522,-6.81191 -4.00082,-10.37211 -1.32043,-4.52413 -2.75055,-9.04799 -3.28542,-13.75089 -0.56226,-3.83285 -0.95215,-7.69839 -1.11503,-11.56855 0,0 15.53175,-7.91382 15.53175,-7.91382 z"
       inkscape:connector-curvature="0" />
    <path
       style="opacity:1;fill:#000000;fill-opacity:1;fill-rule:nonzero;stroke:none;stroke-width:5;stroke-linecap:square;stroke-linejoin:bevel;stroke-miterlimit:4;stroke-dasharray:40, 20;stroke-dashoffset:0;stroke-opacity:0.28959279"
       id="path4171"
       d="m 205.34663,933.90821 c 0.32969,3.95841 1.36799,7.81422 2.09342,11.71108 0.80934,4.44609 1.89095,8.83175 3.06742,13.19314 1.10352,3.46499 2.23836,6.9144 3.32733,10.38321 0.57803,2.29573 1.56679,4.43448 2.46365,6.61229 0.13757,0.61453 1.42241,2.91098 -0.0127,0.43726 0,0 -14.03943,10.65423 -14.03943,10.65423 l 0,0 c -0.60618,-0.91489 -0.93166,-1.58023 -1.15908,-2.64052 -0.76837,-2.27369 -1.76716,-4.46301 -2.28115,-6.82043 -1.1,-3.50126 -2.16474,-7.01172 -3.26183,-10.51477 -1.11332,-4.42242 -2.2393,-8.83905 -3.07623,-13.32504 -0.72201,-3.87131 -1.74655,-7.67342 -2.4812,-11.54197 0,0 15.35981,-8.14848 15.35981,-8.14848 z"
       inkscape:connector-curvature="0" />
    <path
       style="opacity:1;fill:#000000;fill-opacity:1;fill-rule:nonzero;stroke:none;stroke-width:5;stroke-linecap:square;stroke-linejoin:bevel;stroke-miterlimit:4;stroke-dasharray:40, 20;stroke-dashoffset:0;stroke-opacity:0.28959279"
       id="path4173"
       d="m 218.27988,905.6902 c 0.65424,3.92214 1.85466,7.72172 2.9944,11.52274 1.75317,5.34826 2.9482,10.85084 4.40683,16.28015 1.46423,5.78649 2.78384,11.60691 4.08354,17.43242 1.19406,4.99145 2.8102,9.86429 4.87914,14.55786 1.46335,3.14154 2.9473,6.2677 4.28865,9.4645 0.53715,1.43511 1.0134,2.89196 1.45819,4.358 0,0 -15.40331,8.30019 -15.40331,8.30019 l 0,0 c -0.23784,-1.44615 -0.597,-2.87116 -1.09022,-4.25233 -1.26126,-3.22073 -2.65215,-6.38139 -4.04437,-9.54686 -2.10022,-4.81232 -3.59154,-9.84281 -4.86719,-14.93247 -1.32654,-5.79619 -2.53534,-11.61929 -4.04589,-17.37231 -1.47205,-5.3944 -2.67314,-10.86848 -4.52037,-16.15436 -1.20064,-3.82688 -2.37517,-7.66071 -3.49921,-11.50905 0,0 15.35981,-8.14848 15.35981,-8.14848 z"
       inkscape:connector-curvature="0" />
    <path
       style="opacity:1;fill:#000000;fill-opacity:1;fill-rule:nonzero;stroke:none;stroke-width:5;stroke-linecap:square;stroke-linejoin:bevel;stroke-miterlimit:4;stroke-dasharray:40, 20;stroke-dashoffset:0;stroke-opacity:0.28959279"
       id="path4175"
       d="m 249.87408,930.57674 c -1.44377,2.76682 -2.46125,5.73111 -3.5376,8.65346 -1.56965,4.06272 -3.39552,8.01784 -4.98605,12.07257 -1.01078,2.7383 -1.89674,5.51591 -2.78426,8.29498 -0.98028,1.88967 -0.43363,3.42525 -1.68422,0.52081 -18.3562,26.92026 -18.39549,10.31951 -13.16059,7.23018 5.16357,-3.04723 10.34093,-6.07321 15.58057,-8.98771 0.25539,-0.14205 0.57485,-0.10563 0.86228,-0.15845 2.10618,-0.26451 4.23057,-0.44721 6.32707,-0.0739 3.35747,0.6545 6.62441,1.8983 9.78753,3.19814 3.2942,1.36891 6.37343,3.10551 9.47428,4.85209 0.7806,0.53353 1.46299,1.17944 2.12263,1.85073 0,0 -14.90917,9.06908 -14.90917,9.06908 l 0,0 c -0.51023,-0.57885 -1.04625,-1.12322 -1.70433,-1.54062 -2.91396,-1.84946 -5.94271,-3.43075 -9.14425,-4.734 -3.1367,-1.1827 -6.36666,-2.34742 -9.7206,-2.67607 -2.00498,-0.0415 -4.06016,0.0586 -5.96924,0.72339 -5.65834,2.87352 -0.29794,0.16921 13.50478,-7.94391 0.18957,-0.11143 -0.41204,0.16582 -0.59021,0.29471 -0.33598,0.24304 -0.4881,0.70044 -0.8431,0.91475 -5.06071,3.05524 -10.18567,6.00274 -15.2785,9.0041 -1.97928,-1.82965 -1.39968,-2.06157 -0.40012,-4.27552 1.3486,-2.63295 1.86137,-5.70025 3.0801,-8.40309 1.57294,-4.03596 3.38787,-7.96961 4.94752,-12.01039 1.04126,-2.89389 2.06356,-5.79498 3.12396,-8.68101 0,0 15.90152,-7.19436 15.90152,-7.19436 z"
       inkscape:connector-curvature="0" />
    <path
       style="opacity:1;fill:#000000;fill-opacity:1;fill-rule:nonzero;stroke:none;stroke-width:5;stroke-linecap:square;stroke-linejoin:bevel;stroke-miterlimit:4;stroke-dasharray:40, 20;stroke-dashoffset:0;stroke-opacity:0.28959279"
       id="path4177"
       d="m 271.11576,929.33183 c -0.25596,3.55105 0.0993,7.11487 0.63577,10.6242 0.73042,3.86152 2.12882,7.53276 3.61537,11.15437 1.68078,3.34518 3.41949,6.67119 5.29269,9.91445 1.74723,2.76018 3.81107,5.33308 6.01512,7.74113 1.46593,1.47261 2.8626,3.04741 4.68976,4.07104 0.59456,0.0729 1.91695,0.76357 2.52348,0.38305 0.12533,-0.0786 0.12906,-0.26628 0.19359,-0.39942 -4.934,2.7779 -9.87772,5.5386 -14.802,8.3337 -0.67822,0.38498 0.4971,-0.10505 0.89209,-0.52849 0.52346,-0.56117 0.69839,-1.30511 0.88999,-2.02022 0.44466,-2.3452 0.45346,-4.73443 0.78992,-7.09905 0.58801,-3.53851 0.75535,-7.12556 0.8842,-10.70436 0.16768,-4.81882 0.14559,-9.64179 0.1429,-14.4628 -0.29444,-3.36481 0.46489,-6.69554 0.52445,-10.04247 7.2e-4,-0.6737 -0.22389,-1.29492 -0.40459,-1.93103 0,0 15.39374,-8.35735 15.39374,-8.35735 l 0,0 c 0.19914,0.80023 0.44388,1.58956 0.45148,2.42529 0.0351,3.4172 -1.22044,6.77184 -0.88456,10.22183 -0.004,4.81602 -0.0111,9.63205 -0.0144,14.44808 -0.0625,3.60881 -0.17276,7.22187 -0.63479,10.80584 -0.35461,2.37926 -0.46541,4.74714 -0.57199,7.14947 -1.63445,8.33525 -4.28891,6.45604 -16.51703,12.47381 -1.21246,-0.3331 -2.45684,-0.53198 -3.51084,-1.28757 -1.78723,-1.31124 -3.27163,-2.96056 -4.77524,-4.58004 -2.17123,-2.58362 -4.33674,-5.20315 -6.08797,-8.09618 -1.88378,-3.32361 -3.67475,-6.7079 -5.38242,-10.12314 -1.52152,-3.74867 -2.96116,-7.53416 -3.78209,-11.50904 -0.58745,-3.54002 -0.96879,-7.12181 -1.06196,-10.70986 0,0 15.4953,-7.89524 15.4953,-7.89524 z"
       inkscape:connector-curvature="0" />
    <path
       style="opacity:1;fill:#000000;fill-opacity:1;fill-rule:nonzero;stroke:none;stroke-width:5;stroke-linecap:square;stroke-linejoin:bevel;stroke-miterlimit:4;stroke-dasharray:40, 20;stroke-dashoffset:0;stroke-opacity:0.28959279"
       id="path4179"
       d="m 309.99299,889.05482 c 0.99953,4.27077 2.30491,8.48689 3.58779,12.68499 1.65577,6.05806 4.45533,11.68798 6.82292,17.47777 2.34156,5.81395 4.20338,11.78902 6.10197,17.75531 1.71757,5.53068 3.45659,11.05368 5.20716,16.57417 1.3303,4.70419 2.66706,9.39514 4.16103,14.04904 1.2071,3.29407 2.37651,6.60312 3.47605,9.9345 -0.10713,0.2353 1.66757,5.52298 0.73274,2.68175 -18.15909,10.50694 -15.70317,12.32667 -12.19904,1.47958 1.8711,-6.07971 3.75216,-12.15557 5.53437,-18.26216 2.59677,-8.67797 4.71594,-17.47358 6.36878,-26.37711 1.57484,-8.03525 2.85196,-16.1178 4.05042,-24.21607 0.69818,-4.72544 1.09842,-9.49018 1.17501,-14.26556 0.0439,-1.63731 0.18401,-3.30189 -0.5981,-4.79417 0,0 15.24467,-8.61658 15.24467,-8.61658 l 0,0 c 0.76519,1.8243 0.92697,3.71652 0.69194,5.68043 -0.34888,4.91197 -0.77174,9.82266 -1.5874,14.68342 -1.37156,8.14558 -2.7334,16.2896 -4.32,24.3969 -1.65699,8.89944 -3.66775,17.71631 -6.1342,26.42909 -1.63439,6.02856 -3.34404,12.03576 -5.05169,18.04382 -0.43733,1.72513 -1.03881,3.37837 -1.48647,5.09683 -1.90945,7.32992 -1.26386,3.23794 -15.72704,11.28181 -1.67463,-1.6503 -1.20596,-2.75103 -1.80505,-4.96315 -0.9725,-3.38272 -2.11467,-6.71732 -3.24972,-10.04805 -1.44424,-4.67847 -2.79454,-9.37636 -4.05985,-14.10749 -1.71311,-5.53851 -3.34746,-11.10089 -5.10393,-16.62515 -1.86723,-5.93475 -3.69376,-11.87839 -6.01421,-17.65828 -2.31704,-5.85323 -5.22621,-11.47358 -6.97253,-17.54622 -1.35013,-4.20483 -2.62955,-8.42805 -4.21457,-12.55248 0,0 15.36895,-8.21694 15.36895,-8.21694 z"
       inkscape:connector-curvature="0" />
    <path
       style="opacity:1;fill:#000000;fill-opacity:1;fill-rule:nonzero;stroke:none;stroke-width:5;stroke-linecap:square;stroke-linejoin:bevel;stroke-miterlimit:4;stroke-dasharray:40, 20;stroke-dashoffset:0;stroke-opacity:0.28959279"
       id="path4181"
       d="m 367.21169,955.763 c -1.80251,-1.08999 -3.89605,-1.39237 -5.95249,-1.61663 -0.32692,0.0517 -0.66452,0.0573 -0.98076,0.15498 -0.68644,0.21198 -1.1844,0.63177 -1.76157,1.03512 4.59855,-2.62361 9.17293,-5.29006 13.79566,-7.87084 0.38875,-0.21703 -0.74005,0.49715 -1.08719,0.77596 -0.39636,0.31834 -0.7601,0.6753 -1.14015,1.01295 -2.53442,2.30798 -4.17973,5.1042 -5.44256,8.24286 -1.14131,2.65789 -1.15556,5.32946 -0.3868,8.06811 0.58429,1.94425 1.70406,3.24068 3.62758,3.86899 -0.18703,1.06698 3.42341,-1.1827 2.57044,-0.70662 -13.37802,7.46691 -18.76775,11.13544 -13.31947,7.46008 2.15785,-1.74205 3.35138,-4.2507 4.29401,-6.79474 0.86127,-2.9942 1.59224,-6.02246 2.04491,-9.10573 0.24895,-1.81997 0.80248,-3.57462 1.16909,-5.36945 0.175,-6.10756 -0.0676,-0.86922 15.7598,-7.77153 0.16986,-0.0741 0.0633,0.3653 0.10347,0.54621 0.0612,0.27598 0.13788,0.54836 0.20058,0.82402 0.37982,1.66988 0.018,0.28307 0.47678,1.94829 0.82119,3.16935 1.98998,6.24644 3.21786,9.27894 1.28494,2.84373 2.70679,5.61778 4.44159,8.21379 0.40349,0.58083 0.85918,1.12037 1.32679,1.64943 0,0 -15.01219,8.95483 -15.01219,8.95483 l 0,0 c -0.4334,-0.61723 -0.86198,-1.23793 -1.26561,-1.87528 -1.70104,-2.73373 -2.9537,-5.71972 -4.37772,-8.60063 -1.30634,-3.04312 -2.52916,-6.13967 -3.52311,-9.29709 -2.84308,-8.36963 -0.318,-3.90378 14.55516,-11.64622 0.0724,-0.0377 -0.10503,0.12504 -0.15755,0.18756 -0.44108,1.79769 -1.00812,3.55189 -1.45254,5.34839 -0.42869,3.19288 -1.2496,6.28551 -1.96576,9.42041 -0.83436,2.74089 -1.89386,5.39862 -3.76174,7.61049 -4.97627,4.96475 -1.26792,1.39509 -16.44279,9.77352 -0.98067,0.54145 -2.46287,-0.0571 -3.36565,-0.43604 -2.10457,-1.16746 -3.60825,-2.85048 -4.27605,-5.20935 -0.94853,-3.01594 -1.17829,-6.10318 -0.0299,-9.11791 1.18609,-3.29419 2.54997,-6.38719 5.11737,-8.87055 5.2209,-6.11494 13.03768,-11.86952 21.17445,-11.67433 2.22793,0.36677 4.39499,0.9364 6.40639,1.99469 0,0 -14.58031,9.59332 -14.58031,9.59332 z"
       inkscape:connector-curvature="0" />
    <path
       style="opacity:1;fill:#000000;fill-opacity:1;fill-rule:nonzero;stroke:none;stroke-width:5;stroke-linecap:square;stroke-linejoin:bevel;stroke-miterlimit:4;stroke-dasharray:40, 20;stroke-dashoffset:0;stroke-opacity:0.28959279"
       id="path4183"
       d="m 396.99852,936.08484 c 0.48657,3.41403 1.231,6.78842 1.91411,10.1678 0.74417,3.88524 1.55853,7.75399 2.43103,11.61174 0.80396,2.6169 1.72265,5.1937 2.71398,7.74484 0.37526,1.123 0.56726,2.35961 1.53019,3.14365 -1.98611,-6.03271 0.0274,-0.53735 -15.20277,7.94241 -0.10107,0.0563 0.17961,-0.15979 0.22047,-0.26802 0.0749,-0.19854 0.0894,-0.41538 0.11693,-0.6258 0.10381,-0.79451 0.10599,-1.3088 0.14089,-2.125 0.28014,-3.36173 0.88906,-6.67752 1.6612,-9.9573 0.93739,-4.21185 2.08586,-8.35887 3.4272,-12.45775 1.13815,-3.54705 2.94723,-6.80245 4.90368,-9.95189 4.77886,-6.83242 11.0733,-8.54646 19.10969,-13.28195 1.91174,-0.17051 2.93376,1.32724 3.94538,2.71371 1.77111,2.50824 3.05176,5.35336 4.2983,8.15256 1.49961,3.72 2.67271,7.55403 3.89586,11.37041 1.16157,3.61026 1.85207,7.3557 2.64306,11.06216 0.53636,2.13459 0.72458,4.26201 0.38786,6.43521 10e-5,0.13374 2.1e-4,0.26747 3.1e-4,0.4012 0,0 -16.01896,7.19274 -16.01896,7.19274 l 0,0 c 0.083,-0.0209 0.166,-0.0418 0.249,-0.0628 0.75191,-1.93249 0.72095,-3.86589 0.25803,-5.88312 -0.67466,-3.67196 -1.38324,-7.35757 -2.45476,-10.93492 -1.23084,-3.74196 -2.34075,-7.52605 -3.85744,-11.16787 -1.2428,-2.65147 -2.47612,-5.37843 -4.31139,-7.67928 -0.82579,-0.98267 -1.48309,-1.65456 -2.63566,-0.67667 25.70505,-15.28238 14.83998,-10.10716 10.24363,-4.51001 -2.1976,2.91439 -3.92159,6.18089 -5.23969,9.58264 -1.38258,4.03852 -2.65155,8.09935 -3.44798,12.30231 -0.76811,3.13825 -1.32627,6.3054 -1.63002,9.52357 0.007,0.88968 0.16979,3.55318 0.0884,3.60503 -15.06225,9.60083 -11.34481,13.37867 -15.78033,8.41433 -0.90511,-1.14896 -1.40343,-2.43663 -1.68653,-3.86913 -0.89458,-2.67525 -1.89986,-5.30982 -2.62163,-8.04188 -0.863,-3.8746 -1.64373,-7.7653 -2.39582,-11.66256 -0.70974,-3.34245 -1.41683,-6.68423 -2.26519,-9.99345 0,0 15.36894,-8.21694 15.36894,-8.21694 z"
       inkscape:connector-curvature="0" />
    <path
       style="opacity:1;fill:#000000;fill-opacity:1;fill-rule:nonzero;stroke:none;stroke-width:5;stroke-linecap:square;stroke-linejoin:bevel;stroke-miterlimit:4;stroke-dasharray:40, 20;stroke-dashoffset:0;stroke-opacity:0.28959279"
       id="path4185"
       d="m 448.67231,933.8849 c 0.0867,3.87869 0.64888,7.73184 1.34484,11.54291 0.98138,4.48331 2.30504,8.89151 4.03502,13.14242 1.1997,2.77593 2.97591,5.14357 5.26072,7.09471 0.67703,0.44298 1.16989,1.18765 2.04349,1.10228 0.16328,-0.016 0.35502,0.003 0.48175,-0.10071 0.14055,-0.11555 0.39813,-0.5779 0.23821,-0.49113 -4.88476,2.6506 -9.66661,5.48659 -14.49992,8.22989 1.82919,-1.39294 2.3872,-3.89264 3.09182,-5.97176 0.99556,-3.22787 1.22047,-6.60894 1.35654,-9.96302 0.1121,-3.60673 0.2507,-7.21944 -0.22536,-10.804 -0.22598,-1.50495 -0.48544,-3.00428 -0.73043,-4.50629 0,0 15.38331,-8.08934 15.38331,-8.08934 l 0,0 c 0.14854,1.54186 0.3471,3.07791 0.54808,4.61374 0.42243,3.68701 0.40278,7.36794 0.29414,11.07747 -0.11909,3.45811 -0.20486,6.95016 -1.08018,10.31945 -0.63108,2.33504 -1.34062,4.66469 -2.44611,6.81503 -10.03171,5.84888 -12.46984,12.8442 -19.13662,6.88234 -2.38192,-2.20298 -4.17988,-4.93393 -5.46092,-7.91409 -1.65086,-4.39703 -3.05416,-8.87664 -4.10347,-13.45753 -0.78018,-3.85031 -1.26152,-7.74083 -1.92666,-11.60855 0,0 15.53175,-7.91382 15.53175,-7.91382 z"
       inkscape:connector-curvature="0" />
    <path
       style="opacity:1;fill:#000000;fill-opacity:1;fill-rule:nonzero;stroke:none;stroke-width:5;stroke-linecap:square;stroke-linejoin:bevel;stroke-miterlimit:4;stroke-dasharray:40, 20;stroke-dashoffset:0;stroke-opacity:0.28959279"
       id="path4187"
       d="m 485.96265,941.97968 c -2.87302,0.008 -5.54452,0.81954 -7.97219,2.32057 4.5382,-2.59896 9.0602,-5.22641 13.6146,-7.79687 0.32126,-0.18132 -0.62387,0.39659 -0.91162,0.62742 -0.87416,0.70122 -1.41165,1.57622 -1.78296,2.61417 -0.30571,1.22574 0.57263,2.25749 1.46053,2.98907 1.66233,1.46353 3.73856,2.22121 5.71566,3.13435 2.34813,1.19559 4.70882,2.33947 7.06112,3.53127 2.13194,1.43537 4.119,3.11525 5.92774,4.94191 1.45005,1.67702 2.38826,3.71395 3.28764,5.72123 0.76718,1.78689 0.44061,3.65484 0.0516,5.48465 -0.52169,1.98197 -1.82813,3.3356 -3.31387,4.63604 -6.73511,4.93791 -13.2879,9.80185 -21.56232,10.66641 -2.52829,0.28789 -4.99203,0.26994 -7.36836,-0.69616 -1.72587,-0.66723 -2.99344,-1.86923 -4.02251,-3.36562 -0.0838,-0.13662 -0.16756,-0.27323 -0.25134,-0.40985 0,0 15.18042,-8.73418 15.18042,-8.73418 l 0,0 c 0.053,0.10861 0.10592,0.21722 0.15887,0.32583 0.75289,1.24745 1.8894,1.99912 3.27232,2.45442 2.26376,0.55741 4.55502,0.42931 6.85167,0.0908 0.99718,-0.17322 1.52493,-0.23382 2.49653,-0.52671 0.39811,-0.12002 1.531,-0.63387 1.17487,-0.41923 -23.78,14.33172 -17.11332,10.08189 -12.08491,7.01385 1.55419,-0.92607 2.86731,-1.99638 3.78717,-3.57714 0.49386,-1.35166 0.88203,-3.04649 0.47472,-4.44294 -0.72295,-1.83224 -1.57097,-3.68512 -2.86134,-5.18656 -1.72254,-1.6736 -3.55449,-3.27754 -5.62096,-4.51376 -2.31249,-1.21435 -4.70052,-2.25825 -7.03028,-3.4385 -2.16456,-0.94187 -4.30584,-1.98353 -6.10877,-3.53719 -1.32285,-1.29618 -2.29894,-2.75903 -2.41231,-4.66304 1.79538,-8.00139 12.03627,-10.18915 18.22238,-13.68878 2.77283,-1.21314 5.8294,-1.90183 8.86459,-1.51891 0,0 -14.29871,9.96342 -14.29871,9.96342 z"
       inkscape:connector-curvature="0" />
  </g>
</svg>
